<?xml version="1.0" encoding="UTF-8"?> <svg xmlns="http://www.w3.org/2000/svg" xmlns:xlink="http://www.w3.org/1999/xlink" width="126px" height="27px" viewBox="0 0 126 27" version="1.1"><title>HABILLAGE / séparateur</title><defs><filter id="filter-1"><feColorMatrix in="SourceGraphic" type="matrix" values="0 0 0 0 1.000000 0 0 0 0 0.682353 0 0 0 0 0.521569 0 0 0 1.000000 0"></feColorMatrix></filter><polygon id="path-2" points="0 0.461262047 81.5648 0.461262047 81.5648 26.9999 0 26.9999"></polygon><polygon id="path-4" points="0.179644663 0.461 5.11875534 0.461 5.11875534 5.039 0.179644663 5.039"></polygon></defs><g id="SYMBOLES" stroke="none" stroke-width="1" fill="none" fill-rule="evenodd"><g id="CONTENT-/-Présentation" transform="translate(-782.000000, -330.000000)"><g id="Group-17" transform="translate(782.000000, 329.000000)" filter="url(#filter-1)"><g><polygon id="Fill-1" fill="#B99B7B" points="90.85 15.7689 94.134 15.7689 94.134 12.7689 90.85 12.7689"></polygon><polygon id="Fill-2" fill="#B99B7B" points="84.565 15.7689 87.85 15.7689 87.85 12.7689 84.565 12.7689"></polygon><polygon id="Fill-3" fill="#B99B7B" points="110.3922 12.769 97.1342 12.769 97.1342 15.77 110.3922 15.77 104.9162 26.039 125.3012 14.269 104.9162 2.5"></polygon><g id="Group-16" transform="translate(0.000000, 0.538900)"><g id="Group-6"><mask id="mask-3" fill="white"><use xlink:href="#path-2"></use></mask><g id="Clip-5"></g><path d="M24.1428,0.7979 C23.4998,0.2759 22.5538,0.3709 22.0328,1.0139 C21.5088,1.6559 21.6058,2.6019 22.2478,3.1239 L33.4358,12.2309 L26.6718,12.2309 L25.1458,10.9889 C24.5048,10.4659 23.5588,10.5619 23.0368,11.2059 C22.7918,11.5059 22.6878,11.8719 22.7068,12.2309 L16.4928,12.2309 L2.4478,0.7979 C1.8048,0.2759 0.8588,0.3709 0.3368,1.0139 C-0.1862,1.6559 -0.0892,2.6019 0.5528,3.1239 L11.7408,12.2309 L1.4998,12.2309 C0.6718,12.2309 -0.0002,12.9019 -0.0002,13.7309 C-0.0002,14.5589 0.6718,15.2309 1.4998,15.2309 L11.7408,15.2309 L0.5528,24.3369 C-0.0892,24.8599 -0.1862,25.8049 0.3368,26.4469 C0.6328,26.8119 1.0658,26.9999 1.5008,26.9999 C1.8338,26.9999 2.1688,26.8899 2.4478,26.6629 L16.4928,15.2309 L22.7068,15.2309 C22.6878,15.5889 22.7918,15.9549 23.0368,16.2549 C23.3318,16.6199 23.7648,16.8089 24.2008,16.8089 C24.5338,16.8089 24.8688,16.6979 25.1458,16.4719 L26.6718,15.2309 L33.4358,15.2309 L22.2478,24.3369 C21.6058,24.8599 21.5088,25.8049 22.0328,26.4469 C22.3288,26.8119 22.7608,26.9999 23.1968,26.9999 C23.5298,26.9999 23.8648,26.8899 24.1428,26.6629 L38.1878,15.2309 L81.5648,15.2309 L81.5648,12.2309 L38.1878,12.2309 L24.1428,0.7979 Z" id="Fill-4" fill="#B99B7B" mask="url(#mask-3)"></path></g><path d="M12.6712,22.7588 L10.7332,24.3368 C10.0902,24.8598 9.9932,25.8048 10.5172,26.4468 C10.8132,26.8118 11.2452,26.9998 11.6812,26.9998 C12.0142,26.9998 12.3492,26.8898 12.6272,26.6628 L14.5662,25.0848 C15.2082,24.5628 15.3052,23.6168 14.7812,22.9748 C14.2592,22.3308 13.3142,22.2358 12.6712,22.7588" id="Fill-7" fill="#B99B7B"></path><path d="M21.8362,17.2324 C21.3142,16.5884 20.3672,16.4934 19.7262,17.0164 L16.1982,19.8874 C15.5562,20.4104 15.4592,21.3554 15.9822,21.9984 C16.2782,22.3624 16.7112,22.5504 17.1472,22.5504 C17.4802,22.5504 17.8152,22.4404 18.0932,22.2134 L21.6202,19.3424 C22.2632,18.8204 22.3592,17.8754 21.8362,17.2324" id="Fill-9" fill="#B99B7B"></path><path d="M16.1985,7.5732 L19.7255,10.4442 C20.0045,10.6712 20.3395,10.7812 20.6725,10.7812 C21.1075,10.7812 21.5405,10.5932 21.8365,10.2282 C22.3595,9.5862 22.2625,8.6402 21.6205,8.1182 L18.0935,5.2472 C17.4505,4.7242 16.5055,4.8192 15.9825,5.4632 C15.4595,6.1052 15.5555,7.0512 16.1985,7.5732" id="Fill-11" fill="#B99B7B"></path><g id="Group-15" transform="translate(10.000000, 0.000000)"><mask id="mask-5" fill="white"><use xlink:href="#path-4"></use></mask><g id="Clip-14"></g><path d="M0.7327,3.124 L2.6707,4.702 C2.9497,4.929 3.2847,5.039 3.6177,5.039 C4.0527,5.039 4.4857,4.851 4.7817,4.486 C5.3047,3.844 5.2087,2.898 4.5657,2.376 L2.6277,0.798 C1.9857,0.275 1.0397,0.371 0.5167,1.014 C-0.0063,1.656 0.0897,2.602 0.7327,3.124" id="Fill-13" fill="#B99B7B" mask="url(#mask-5)"></path></g></g></g></g></g></g></svg> 