<?xml version="1.0" encoding="UTF-8"?>
<svg width="256px" height="28px" viewBox="0 0 256 28" version="1.1" xmlns="http://www.w3.org/2000/svg" xmlns:xlink="http://www.w3.org/1999/xlink">
    <title>Group 19 Copy</title>
    <defs>
        <path d="M209.854,0.798 L195.808,12.231 L189.594,12.231 C189.613,11.872 189.509,11.505 189.264,11.206 L189.264,11.206 C188.969,10.842 188.536,10.652 188.1,10.652 L188.1,10.652 C187.767,10.652 187.432,10.764 187.156,10.989 L187.156,10.989 L185.629,12.231 L178.866,12.231 L190.053,3.124 C190.695,2.602 190.792,1.656 190.269,1.015 L190.269,1.015 C189.972,0.649 189.541,0.46 189.105,0.46 L189.105,0.46 C188.772,0.46 188.437,0.571 188.158,0.798 L188.158,0.798 L174.114,12.231 L0.737,12.231 L0.737,15.23 L174.114,15.23 L188.158,26.663 C188.801,27.185 189.748,27.09 190.269,26.447 L190.269,26.447 C190.792,25.805 190.695,24.859 190.053,24.337 L190.053,24.337 L178.866,15.23 L185.629,15.23 L187.156,16.472 C187.796,16.995 188.742,16.899 189.264,16.255 L189.264,16.255 C189.509,15.955 189.613,15.589 189.594,15.23 L189.594,15.23 L195.808,15.23 L209.854,26.663 C210.496,27.185 211.443,27.09 211.964,26.447 L211.964,26.447 C212.184,26.178 212.293,25.856 212.301,25.533 L212.301,25.533 L212.301,25.47 C212.292,25.044 212.103,24.625 211.748,24.337 L211.748,24.337 L200.561,15.23 L210.801,15.23 C211.629,15.23 212.301,14.559 212.301,13.73 L212.301,13.73 C212.301,12.902 211.629,12.231 210.801,12.231 L210.801,12.231 L200.561,12.231 L211.748,3.124 C212.103,2.835 212.292,2.416 212.301,1.992 L212.301,1.992 L212.301,1.927 C212.293,1.605 212.184,1.283 211.964,1.015 L211.964,1.015 C211.668,0.649 211.236,0.46 210.8,0.46 L210.8,0.46 C210.467,0.46 210.132,0.571 209.854,0.798 L209.854,0.798 Z" id="path-1"></path>
        <path d="M2.674,0.799 L0.735,2.376 C0.093,2.898 -0.004,3.844 0.52,4.486 L0.52,4.486 C1.042,5.13 1.987,5.225 2.63,4.702 L2.63,4.702 L4.567,3.124 C5.211,2.602 5.308,1.656 4.783,1.015 L4.783,1.015 C4.487,0.649 4.056,0.46 3.62,0.46 L3.62,0.46 C3.287,0.46 2.953,0.571 2.674,0.799 L2.674,0.799 Z" id="path-3"></path>
        <path d="M4.208,1.247 L0.681,4.118 C0.038,4.641 -0.058,5.585 0.465,6.228 L0.465,6.228 C0.987,6.872 1.934,6.968 2.574,6.445 L2.574,6.445 L6.102,3.574 C6.745,3.05 6.842,2.105 6.318,1.463 L6.318,1.463 C6.022,1.098 5.59,0.911 5.154,0.911 L5.154,0.911 C4.821,0.911 4.486,1.02 4.208,1.247 L4.208,1.247 Z" id="path-5"></path>
        <path d="M0.465,1.233 C-0.058,1.874 0.038,2.821 0.681,3.342 L0.681,3.342 L4.207,6.213 C4.851,6.737 5.796,6.641 6.318,5.997 L6.318,5.997 C6.842,5.357 6.745,4.41 6.102,3.888 L6.102,3.888 L2.575,1.016 C2.297,0.79 1.962,0.679 1.629,0.679 L1.629,0.679 C1.194,0.679 0.761,0.868 0.465,1.233 L0.465,1.233 Z" id="path-7"></path>
        <path d="M0.52,0.976 C0.296,1.25 0.185,1.581 0.182,1.911 L0.182,1.911 L0.182,1.933 C0.186,2.364 0.374,2.792 0.736,3.084 L0.736,3.084 L2.673,4.663 C2.944,4.883 3.268,4.993 3.592,5 L3.592,5 L3.647,5 C4.074,4.992 4.494,4.803 4.784,4.447 L4.784,4.447 C5.308,3.805 5.211,2.859 4.569,2.337 L4.569,2.337 L2.63,0.759 C2.352,0.532 2.017,0.421 1.684,0.421 L1.684,0.421 C1.248,0.421 0.816,0.61 0.52,0.976 L0.52,0.976 Z" id="path-9"></path>
    </defs>
    <g id="SYMBOLES" stroke="none" stroke-width="1" fill="none" fill-rule="evenodd">
        <g id="CONTENT-/-ACTIVITES-/-img-droite" transform="translate(-261.000000, -36.000000)">
            <g id="Group-19-Copy" transform="translate(389.000000, 50.000000) scale(-1, 1) translate(-389.000000, -50.000000) translate(261.000000, 36.000000)">
                <polygon id="Fill-1" fill="#F5AB87" points="31.167 15.77 34.451 15.77 34.451 12.77 31.167 12.77"></polygon>
                <polygon id="Fill-2" fill="#F5AB87" points="37.451 15.77 40.736 15.77 40.736 12.77 37.451 12.77"></polygon>
                <polygon id="Fill-3" fill="#F5AB87" points="0.0004 14.2699 20.3854 26.0379 14.9094 15.7699 28.1674 15.7699 28.1674 12.7699 14.9094 12.7699 20.3854 2.4999"></polygon>
                <g id="Group-6" transform="translate(43.000000, 0.539000)">
                    <mask id="mask-2" fill="white">
                        <use xlink:href="#path-1"></use>
                    </mask>
                    <g id="Clip-5"></g>
                    <polygon id="Fill-4" fill="#F5AB87" mask="url(#mask-2)" points="-4.263 32 217.301 32 217.301 -4.539 -4.263 -4.539"></polygon>
                </g>
                <g id="Group-9" transform="translate(240.000000, 0.539000)">
                    <mask id="mask-4" fill="white">
                        <use xlink:href="#path-3"></use>
                    </mask>
                    <g id="Clip-8"></g>
                    <polygon id="Fill-7" fill="#F5AB87" mask="url(#mask-4)" points="-4.817 10.04 10.121 10.04 10.121 -4.539 -4.817 -4.539"></polygon>
                </g>
                <g id="Group-12" transform="translate(233.000000, 4.539000)">
                    <mask id="mask-6" fill="white">
                        <use xlink:href="#path-5"></use>
                    </mask>
                    <g id="Clip-11"></g>
                    <polygon id="Fill-10" fill="#F5AB87" mask="url(#mask-6)" points="-4.871 11.782 11.656 11.782 11.656 -4.089 -4.871 -4.089"></polygon>
                </g>
                <g id="Group-15" transform="translate(233.000000, 16.539000)">
                    <mask id="mask-8" fill="white">
                        <use xlink:href="#path-7"></use>
                    </mask>
                    <g id="Clip-14"></g>
                    <polygon id="Fill-13" fill="#F5AB87" mask="url(#mask-8)" points="-4.871 11.551 11.656 11.551 11.656 -4.321 -4.871 -4.321"></polygon>
                </g>
                <g id="Group-18" transform="translate(240.000000, 22.539000)">
                    <mask id="mask-10" fill="white">
                        <use xlink:href="#path-9"></use>
                    </mask>
                    <g id="Clip-17"></g>
                    <polygon id="Fill-16" fill="#F5AB87" mask="url(#mask-10)" points="-4.817 10 10.121 10 10.121 -4.578 -4.817 -4.578"></polygon>
                </g>
            </g>
        </g>
    </g>
</svg>