<?xml version="1.0" encoding="utf-8"?>
<!-- Generator: Adobe Illustrator 22.0.1, SVG Export Plug-In . SVG Version: 6.00 Build 0)  -->
<svg version="1.1" id="Calque_1" xmlns="http://www.w3.org/2000/svg" xmlns:xlink="http://www.w3.org/1999/xlink" x="0px" y="0px"
	 viewBox="0 0 1536.3 43.9" style="enable-background:new 0 0 1536.3 43.9;" xml:space="preserve">
<style type="text/css">
	.st0{fill:#FFFFFF;}
	.st1{fill:#90CEC9;}
</style>
<title>Stroke 2</title>
<desc>Created with Sketch.</desc>
<title>Stroke 2</title>
<desc>Created with Sketch.</desc>
<g>
	<g>
		<path class="st0" d="M1537.4,43.9V16.6c-9.7,0-32.4,0.8-63.8,1.9c-115.2,4-355,12.4-504.5,0.2c-19.6-1.6-34.8-3-48.2-4.3
			c-31.6-3-50.7-4.8-86.6-5c-27.2-0.2-56.8,3.1-85.5,6.2c-25.5,2.8-51.9,5.7-76.5,6.2c-101.3,1.9-156.1-1.6-200.2-4.4
			c-41.9-2.7-75-4.8-129.6-0.7c-41.4,3.1-98.1,7.2-187.2,8.3c-4.2,0.2-8.7,0.3-13.4,0.3c-30.3,0-69.1-3.3-98.5-5.8
			c-20.1-1.7-37.7-3.1-44.8-2.9v27.6H1537.4z"/>
	</g>
	<g id="HOME---Yoga-_1_">
		<g id="DES-TRUCS-BIEN-_x2F_-HOME_1_" transform="translate(0.000000, -846.000000)">
			<g id="BOUTIQUE_1_" transform="translate(-56.000000, 847.000000)">
				<g id="Group-7_1_" transform="translate(2.000000, 2.000000)">
					<g id="Group-6_1_">
						<g id="Stroke-2_1_">
							<path class="st1" d="M196.1,22.1c-30.3,0-69.1-3.3-98.5-5.8c-20.1-1.7-37.7-3.2-44.8-3v-7c7.5-0.2,24.2,1.2,45.4,3
								c33.8,2.9,80.1,6.8,111.1,5.5l0.1,0c88.9-1,145.5-5.2,186.8-8.3c55.1-4.1,88.4-1.9,130.6,0.7c44,2.8,98.7,6.3,199.6,4.4
								c24.2-0.4,50.4-3.3,75.8-6.1c28.8-3.2,58.6-6.5,86.3-6.3c36.1,0.2,56.4,2.1,87.2,5c13.4,1.3,28.6,2.7,48.1,4.3
								c149.1,12.2,388.6,3.8,503.7-0.2c31.5-1.1,54.2-1.9,64-1.9v7c-9.7,0-32.4,0.8-63.8,1.9c-115.2,4-355,12.4-504.5,0.2
								c-19.6-1.6-34.8-3-48.2-4.3c-31.6-3-50.7-4.8-86.6-5c-27.2-0.2-56.8,3.1-85.5,6.2c-25.5,2.8-51.9,5.7-76.5,6.2
								c-101.3,1.9-156.1-1.6-200.2-4.4c-41.9-2.7-75-4.8-129.6-0.7c-41.4,3.1-98.1,7.2-187.2,8.3C205.3,22.1,200.8,22.1,196.1,22.1
								z"/>
						</g>
					</g>
				</g>
			</g>
		</g>
	</g>
</g>
</svg>
