<?xml version="1.0" encoding="UTF-8"?>
<svg width="175px" height="91px" viewBox="0 0 175 91" version="1.1" xmlns="http://www.w3.org/2000/svg" xmlns:xlink="http://www.w3.org/1999/xlink">
    <!-- Generator: Sketch 63.1 (92452) - https://sketch.com -->
    <title>LOGO / basic</title>
    <desc>Created with Sketch.</desc>
    <defs>
        <polygon id="path-1" points="0.188848536 0.0857182176 17.7637177 0.0857182176 17.7637177 23.9722845 0.188848536 23.9722845"></polygon>
    </defs>
    <g id="Symbols" stroke="none" stroke-width="1" fill="none" fill-rule="evenodd">
        <g id="MENU-/-scroll" transform="translate(-37.000000, 0.000000)">
            <g id="LOGO-/-basic" transform="translate(37.000000, 0.000000)">
                <g id="Group-38">
                    <path d="M4.78360295,23.7090769 C6.28332473,23.6053634 7.56107882,23.40273 8.61819437,23.1007409 C9.67398078,22.8007128 10.5401421,22.3788868 11.2166783,21.8396205 C11.8914424,21.2983933 12.3832271,20.6342788 12.6893741,19.8442265 C12.9955211,19.0554815 13.1490377,18.119446 13.1490377,17.0389526 C13.1490377,15.7728208 12.9795714,14.7226134 12.6424109,13.8915986 C12.3032567,13.0608018 11.7871043,12.391458 11.0895232,11.8816063 C10.3919421,11.3739334 9.52157183,11.0046177 8.47619708,10.776056 C7.42971471,10.5472764 6.19914536,10.4023826 4.78360295,10.3394137 L4.78360295,23.7090769 Z M11.8178962,6.9112056 C12.5154773,7.2236532 13.2279005,7.63284189 13.956495,8.14269362 C14.6859756,8.6516738 15.3399163,9.3062014 15.921197,10.1054049 C16.50137,10.9061335 16.9836291,11.8711478 17.3633224,13.0041516 C17.7427941,14.1371554 17.9328622,15.4821617 17.9328622,17.0389526 C17.9328622,18.9513323 17.6373483,20.5567116 17.0454345,21.8542188 C16.4546283,23.1530334 15.6888176,24.2282976 14.7488886,25.0802294 C13.8091811,25.9321611 12.7576037,26.5869066 11.5972577,27.0431585 C10.4344748,27.5004999 9.27833778,27.83844 8.12640968,28.0567612 C6.97558921,28.2746465 5.8874602,28.3984054 4.86357334,28.4299988 C3.83857886,28.4613743 3.00985521,28.4761905 2.37629475,28.4761905 L0,28.4761905 L0,5.57142857 L2.37629475,5.57142857 C3.05172336,5.57142857 3.77455824,5.57665782 4.54679312,5.58711632 C5.31681275,5.59757481 6.11474448,5.64376651 6.93837307,5.72765237 C7.76266623,5.81066669 8.5860733,5.94597349 9.41058799,6.13270124 C10.2339951,6.31942899 11.0361358,6.57936621 11.8178962,6.9112056 L11.8178962,6.9112056 Z" id="Fill-1" fill="#1D1D1B"></path>
                    <g id="Group-5" transform="translate(38.957597, 0.000000)">
                        <mask id="mask-2" fill="white">
                            <use xlink:href="#path-1"></use>
                        </mask>
                        <g id="Clip-4"></g>
                        <path d="M8.80215722,23.9722845 C7.61991668,23.9722845 6.51095734,23.7826856 5.47705034,23.4028232 C4.44314335,23.0231823 3.52989574,22.5155178 2.73775029,21.8820447 C1.94671182,21.2485716 1.32415369,20.5041299 0.869854513,19.6489412 C0.415998124,18.7937524 0.188848536,17.890278 0.188848536,16.9398468 L5.0014974,16.9398468 C5.0014974,17.1298887 5.09116172,17.3516043 5.27137591,17.6054366 C5.45048314,17.8592688 5.70309296,18.1024693 6.03141932,18.3339307 C6.35753174,18.5664995 6.75426864,18.7616358 7.2191947,18.9193396 C7.682571,19.0783723 8.21037277,19.1583317 8.80215722,19.1583317 C9.75193474,19.1583317 10.5011299,19.0473632 11.049964,18.8256476 C11.5990195,18.6037105 12.0108112,18.36051 12.2844534,18.096046 C12.5594239,17.8326895 12.7706332,17.4787419 12.9187454,17.0348678 C12.9187454,16.782143 12.902805,16.5285322 12.8709244,16.2744785 C12.8388224,16.0208678 12.7387526,15.7894064 12.5700508,15.5769936 C12.2740479,15.2188376 11.7674999,14.9395336 11.049964,14.7388599 C10.3315426,14.5384077 9.44574772,14.4371849 8.39058697,14.4371849 C7.58781464,14.4371849 6.86496532,14.3634274 6.22115343,14.2163553 C5.57734153,14.0681758 5.01212429,13.8836712 4.52638725,13.6617341 C4.0413144,13.4400185 3.61911726,13.1915021 3.25979584,12.9172924 C2.90180277,12.6421967 2.60535706,12.3668796 2.37311543,12.0931128 C1.90951773,11.5863343 1.55019631,11.0529765 1.29758649,10.4934824 C1.0436483,9.93332385 0.863655499,9.40550341 0.759157833,8.90957811 C0.652667626,8.41254535 0.595105353,7.97974587 0.584478471,7.6105152 C0.57385159,7.24172752 0.569423723,6.97194771 0.569423723,6.80228322 C0.569423723,6.65498965 0.589791912,6.41732647 0.632299437,6.0897367 C0.673921389,5.76236841 0.763364307,5.39889659 0.902177944,4.9966633 C1.03833486,4.59575898 1.22829036,4.16805387 1.47115888,3.71376946 C1.71424879,3.25926356 2.04700301,2.8222557 2.46897875,2.39875898 C4.00943376,0.857824509 6.15296427,0.0856960682 8.89691358,0.0856960682 C11.5990195,0.0856960682 13.7106694,0.877980472 15.2307562,2.4616633 C15.7572296,3.01207615 16.1690213,3.58153748 16.465467,4.17226225 C16.7605843,4.7640945 16.9715722,5.31339987 17.0984306,5.82106435 C17.224182,6.32651389 17.299013,6.75953486 17.3202668,7.11901979 C17.3415205,7.47850472 17.3523688,7.70022031 17.3523688,7.78438807 L12.5381702,7.6255768 L12.5381702,7.6895886 C12.5381702,7.43575636 12.4956627,7.14559908 12.4121974,6.8182308 C12.3271823,6.49086252 12.158702,6.18475767 11.9052066,5.90013775 C11.6512684,5.61441035 11.2826484,5.37741166 10.7964686,5.18670524 C10.3102888,4.9966633 9.67710378,4.90186383 8.89691358,4.90186383 C8.13687017,4.90186383 7.53025237,4.97650734 7.07617458,5.12380092 C6.6220968,5.270873 6.27340226,5.45094771 6.03141932,5.66114561 C5.7885508,5.87333696 5.62427693,6.09505256 5.54125442,6.32651389 C5.45579658,6.5590827 5.41328905,6.75001062 5.41328905,6.89841166 L5.41328905,7.11901979 L5.38229398,7.15113644 C5.38229398,7.36222031 5.40266217,7.57441166 5.4451697,7.78438807 C5.48789862,7.95405256 5.54125442,8.13855714 5.60302316,8.33900931 C5.66678445,8.54056894 5.78323736,8.72396606 5.95260328,8.89252307 C6.43767613,9.37870262 7.25107534,9.62190315 8.39058697,9.62190315 C11.3871461,9.62190315 13.699157,10.2715453 15.324627,11.5703868 C16.9503185,12.8694497 17.7637177,14.7016489 17.7637177,17.0669844 C17.7637177,17.7432059 17.5996652,18.4821102 17.2733314,19.2841404 C16.945005,20.087278 16.4278301,20.8370355 15.7213639,21.534299 C15.0135693,22.2306764 14.0901376,22.8120984 12.9497404,23.2759071 C11.8100074,23.7399372 10.4276273,23.9722845 8.80215722,23.9722845" id="Fill-3" fill="#1D1D1B" mask="url(#mask-2)"></path>
                    </g>
                    <path d="M97.4402,17.5425484 C97.6883157,17.5425484 98.0093939,17.5068155 98.401486,17.4333889 C98.7933616,17.3610516 99.1748449,17.2152877 99.5461525,16.9969687 C99.9194086,16.7786496 100.231827,16.4681659 100.490551,16.0622494 C100.748843,15.6574223 100.878097,15.1118425 100.878097,14.4268175 C100.878097,13.3461164 100.738234,12.4891815 100.459158,11.855359 C100.18203,11.2217544 99.8503432,10.7443722 99.4690764,10.4214692 C99.0871601,10.1003092 98.6996146,9.89266644 98.3075225,9.79810509 C97.9156469,9.70485105 97.6155698,9.65757038 97.4090232,9.65757038 L91.8361624,9.65757038 L91.8361624,17.5425484 L97.4402,17.5425484 Z M103.571862,19.7246494 C104.170285,20.2639106 104.687301,20.8722407 105.120745,21.5478967 C105.554623,22.2224634 105.911208,22.9179468 106.188769,23.6354364 C106.467628,24.3520545 106.667896,25.0739018 106.793253,25.8007605 C106.916012,26.5289264 106.978799,27.2139514 106.978799,27.8571429 L104.656124,27.8571429 L102.302056,27.8571429 C102.302056,27.7122505 102.28755,27.4690927 102.256373,27.1248372 C102.224979,26.7829783 102.158296,26.4032077 102.054156,25.9877043 C101.951749,25.5722009 101.795648,25.1462391 101.591267,24.7100368 C101.384937,24.2733987 101.099366,23.8683537 100.738234,23.4949017 C100.377968,23.1214498 99.9274193,22.8192457 99.3920003,22.5906861 C98.8539833,22.3629981 98.2053317,22.2488272 97.4402,22.2488272 L91.8361624,22.2488272 L91.8361624,27.8571429 L87.1908127,27.8571429 L87.1908127,4.95238095 L97.4402,4.95238095 C97.5235548,4.95238095 97.7511024,4.96828643 98.121977,4.99966162 C98.4928515,5.0312547 98.9431837,5.12341933 99.4690764,5.27964164 C99.9964847,5.43629972 100.567627,5.66899906 101.188999,5.98144368 C101.807989,6.29214524 102.406411,6.73902385 102.984049,7.32011855 C104.697693,9.04510048 105.554623,11.4137096 105.554623,14.4268175 C105.554623,15.6101416 105.373408,16.6381149 105.012492,17.5109553 C104.649629,18.3837957 104.170285,19.1224201 103.571862,19.7246494 L103.571862,19.7246494 Z" id="Fill-6" fill="#1D1D1B"></path>
                    <path d="M129.240283,4.95238095 L129.240283,17.4518654 C129.240283,18.0567955 129.179245,18.7279205 129.053026,19.4672066 C128.929424,20.2069297 128.725818,20.9621637 128.446569,21.732035 C128.164921,22.5040909 127.791499,23.259325 127.323467,23.9979557 C126.855217,24.7381157 126.278189,25.3946035 125.591509,25.9667638 C124.907228,26.5391425 124.101089,26.9979194 123.175271,27.3417835 C122.251851,27.6856477 121.185427,27.8571429 119.980578,27.8571429 L119.948751,27.8571429 C118.702047,27.8571429 117.547554,27.6498194 116.487234,27.232114 C115.427132,26.8159379 114.503276,26.200303 113.714358,25.388268 C112.964897,24.6393694 112.387432,23.8317037 111.982401,22.9668001 C111.577151,22.1023334 111.281334,21.2798121 111.094514,20.4992361 C110.907475,19.7166938 110.792157,19.041418 110.752264,18.4668546 C110.710191,17.8949128 110.689046,17.545587 110.689046,17.4214988 L110.689046,4.95238095 L115.458741,4.95238095 L115.458741,17.4518654 C115.458741,17.6192098 115.468987,17.8693524 115.490132,18.2018564 C115.511278,18.5354527 115.574278,18.9109943 115.67717,19.3273889 C115.781807,19.744002 115.926773,20.1711014 116.113593,20.6086871 C116.300414,21.0451805 116.567019,21.4521811 116.909051,21.8266304 C117.251301,22.2012982 117.673118,22.5040909 118.172977,22.7334793 C118.670656,22.9626493 119.272971,23.0762512 119.980578,23.0762512 C121.04068,23.0762512 121.867529,22.8258901 122.459599,22.3262602 C123.051669,21.8266304 123.498555,21.2544701 123.79895,20.6086871 C124.101089,19.9626856 124.287909,19.3273889 124.361373,18.7017047 C124.432875,18.0766758 124.470805,17.6506687 124.470805,17.4214988 L124.470805,4.95238095 L129.240283,4.95238095 Z" id="Fill-8" fill="#1D1D1B"></path>
                    <path d="M153.975265,22.4272324 C153.477643,23.2379664 152.888183,23.9775757 152.204279,24.6436604 C151.520592,25.309527 150.766126,25.8811424 149.938276,26.3589431 C149.109992,26.8380529 148.219397,27.2067667 147.266273,27.4672662 C146.314887,27.7277658 145.330065,27.8571429 144.316149,27.8571429 C142.743821,27.8571429 141.268108,27.5554084 139.892049,26.9525941 C138.514254,26.3497798 137.314056,25.5281372 136.289719,24.4870116 C135.265166,23.4461043 134.45208,22.235894 133.851764,20.8513628 C133.251665,19.4687952 132.95053,17.9858677 132.95053,16.4047619 C132.95053,14.8236561 133.251665,13.3416013 133.851764,11.958161 C134.45208,10.5745025 135.265166,9.36341955 136.289719,8.32229401 C137.314056,7.28225934 138.514254,6.46083485 139.892049,5.8567115 C141.268108,5.25389719 142.743821,4.95238095 144.316149,4.95238095 C145.330065,4.95238095 146.314887,5.08263073 147.266273,5.34203942 C148.219397,5.60253898 149.109992,5.97234363 149.938276,6.4503625 C150.766126,6.9281632 151.520592,7.50610569 152.204279,8.18244458 C152.888183,8.85921982 153.477643,9.60188355 153.975265,10.4139266 L150.496255,13.9075442 C150.247661,13.2837852 149.921341,12.7121697 149.517947,12.1911706 C149.114334,11.6723532 148.643852,11.2248787 148.106281,10.8509288 C147.566974,10.4758879 146.977731,10.184844 146.335729,9.97692437 C145.693728,9.76878654 145.020679,9.66384492 144.316149,9.66384492 C143.406665,9.66384492 142.540821,9.84122025 141.72361,10.1955346 C140.905964,10.5483216 140.197092,11.0324494 139.59721,11.6459542 C138.997112,12.259459 138.52055,12.9728875 138.169262,13.7838396 C137.815803,14.5947918 137.640376,15.468578 137.640376,16.4047619 C137.640376,17.3407277 137.815803,18.2145139 138.169262,19.025466 C138.52055,19.8364182 138.997112,20.5500648 139.59721,21.1633514 C140.197092,21.7777289 140.905964,22.260984 141.72361,22.6139893 C142.540821,22.9691763 143.406665,23.1454607 144.316149,23.1454607 C145.020679,23.1454607 145.693728,23.0407373 146.335729,22.8323813 C146.977731,22.6246798 147.566974,22.3334177 148.106281,21.9585951 C148.643852,21.5846451 149.114334,21.1434976 149.517947,20.6329708 C149.921341,20.1233168 150.247661,19.5571556 150.496255,18.9320876 L153.975265,22.4272324 Z" id="Fill-10" fill="#1D1D1B"></path>
                    <path d="M166.171308,27.8571429 C165.005856,27.8571429 163.913475,27.6702053 162.894822,27.2963302 C161.876169,26.9224552 160.977267,26.4225009 160.1955,25.7986487 C159.41635,25.1747964 158.802977,24.441661 158.355599,23.5994605 C157.90822,22.7570419 157.685512,21.8675071 157.685512,20.9315107 L162.426503,20.9315107 C162.426503,21.1186663 162.514409,21.3370146 162.693273,21.5869918 C162.869519,21.8369689 163.11753,22.0766939 163.441012,22.3044218 C163.764495,22.5334585 164.153197,22.7256311 164.610828,22.8811579 C165.068894,23.0375572 165.5876,23.1163022 166.171308,23.1163022 C167.106201,23.1163022 167.84587,23.007019 168.385516,22.7886707 C168.927343,22.5701043 169.332842,22.3305974 169.603755,22.07015 C169.872706,21.8107933 170.080581,21.4622213 170.227599,21.0250885 C170.227599,20.776202 170.211021,20.526443 170.179174,20.2764658 C170.147764,20.0264887 170.049171,19.7985427 169.883176,19.5893559 C169.591104,19.2366394 169.093338,18.9615773 168.385516,18.7639514 C167.680093,18.5665436 166.80584,18.4668581 165.766246,18.4668581 C164.974009,18.4668581 164.262479,18.3944389 163.627947,18.2493824 C162.993634,18.1034533 162.436755,17.9217509 161.960148,17.7031845 C161.481141,17.4848362 161.065173,17.2400942 160.712679,16.9700491 C160.35735,16.6991314 160.065278,16.4282138 159.838426,16.1583868 C159.380796,15.659305 159.025467,15.1342657 158.777893,14.5830508 C158.527701,14.0316178 158.351236,13.5115956 158.246535,13.0232022 C158.141398,12.5337181 158.084467,12.1074918 158.073997,11.7438688 C158.063527,11.3806821 158.0596,11.1147815 158.0596,10.9479119 C158.0596,10.8028554 158.08054,10.5688017 158.122421,10.2464054 C158.16212,9.92379089 158.250461,9.56583932 158.387009,9.16971497 C158.521593,8.7748994 158.708528,8.35369009 158.947814,7.90630515 C159.187317,7.45870209 159.514944,7.02833131 159.930912,6.61126647 C161.449731,5.09373503 163.560764,4.33333333 166.263794,4.33333333 C168.927343,4.33333333 171.006967,5.11358487 172.504627,6.67321543 C173.023333,7.21505072 173.428831,7.77586333 173.720903,8.35783456 C174.012757,8.94067831 174.220632,9.48164108 174.344528,9.98159538 C174.470824,10.4793684 174.541933,10.9058128 174.563092,11.259838 C174.58425,11.6138633 174.594938,11.8322116 174.594938,11.915101 L169.851766,11.7587017 L169.851766,11.8217413 C169.851766,11.5717642 169.809885,11.2860137 169.727651,10.9636173 C169.643891,10.6412209 169.477896,10.339547 169.227704,10.0592497 C168.979694,9.77786182 168.614331,9.54468069 168.135542,9.35687064 C167.658498,9.16971497 167.034873,9.07613714 166.263794,9.07613714 C165.516273,9.07613714 164.917514,9.14986513 164.470136,9.29470354 C164.022757,9.43976009 163.680298,9.6170999 163.441012,9.82410541 C163.201509,10.0332922 163.039877,10.2516405 162.957861,10.4793684 C162.873882,10.708405 162.832002,10.8964332 162.832002,11.0425804 L162.832002,11.259838 L162.802336,11.2914669 C162.802336,11.4991268 162.821313,11.7083136 162.863412,11.915101 C162.905292,12.0821887 162.957861,12.2638911 163.020681,12.4612989 C163.081539,12.6597973 163.197364,12.8404091 163.363359,13.0064061 C163.842366,13.4852018 164.642238,13.7247087 165.766246,13.7247087 C168.719468,13.7247087 170.996496,14.3644844 172.596894,15.6435996 C174.199692,16.9229329 175,18.7273055 175,21.0567174 C175,21.7224506 174.838368,22.4503509 174.517067,23.2402001 C174.193584,24.0311401 173.684912,24.7695106 172.987778,25.4564025 C172.290208,26.1422036 171.380836,26.7145771 170.256828,27.1713417 C169.135218,27.6283243 167.771925,27.8571429 166.171308,27.8571429" id="Fill-12" fill="#1D1D1B"></path>
                    <path d="M87.7383964,31.7405915 C87.9889349,31.6572327 88.3229863,31.5714286 88.657258,31.5714286 C89.9919211,31.6572327 90.5762906,33.592048 89.5750179,34.5189988 C88.657258,35.2767866 86.9872215,35.2767866 86.8206365,33.8445698 C86.6542719,33.0034231 86.9872215,31.9931134 87.7383964,31.7405915 M85.8160585,40.9194051 C83.5636356,45.6330722 81.2261573,52.7054624 83.1454103,57.8410366 C85.4826682,64.0700571 94.1613935,60.2833408 96.49777,56.1582986 C97.1660931,55.0621848 98.8350279,56.0727168 98.1664844,57.1666076 C95.4960565,61.7964713 87.151603,65.5854105 82.8124607,61.2078464 C77.8047749,56.2418797 81.727014,45.0444474 84.1471237,39.9946772 C84.6477601,38.8152046 86.3169152,39.8257366 85.8160585,40.9194051" id="Fill-14" fill="#FFCF00"></path>
                    <path d="M98.1307592,52.0883903 C100.850519,49.6406588 103.640967,43.2541404 104.052877,39.3744838 C104.319407,36.8674014 102.353222,33.7994632 101.679895,35.7223025 C100.837626,37.8937982 100.080272,38.9793254 99.6592484,41.1508211 C98.9861441,44.1591877 98.215453,48.91212 98.1307592,52.0883903 M98.4810936,54.9396643 C98.6491474,55.857729 98.8169789,56.7777795 99.0697264,57.695403 C99.8275245,60.7039902 102.605969,66.9718067 106.393848,62.7927476 C108.078387,61.0400183 109.172293,59.1167376 110.014563,56.8605179 C110.35067,55.6918111 112.287068,56.1933158 111.866266,57.3620226 C109.845397,63.2110727 102.100919,71.3997428 98.3119283,61.8746828 C96.2076993,56.5269168 96.1230055,50.5949078 96.9654974,44.9964998 C97.5552417,41.2357658 98.7903037,35.1985136 101.427592,32.964578 C101.713239,32.7223201 102.18539,32.7966743 102.438138,32.964578 C105.047417,34.3859126 106.249135,37.2762391 105.937035,39.799428 C105.046084,46.9895013 101.570082,50.3208784 98.4810936,54.9396643" id="Fill-16" fill="#FFCF00"></path>
                    <path d="M120.441769,39.2753453 C123.987015,40.8713244 123.201319,46.1449377 123.673698,49.2815767 C124.066109,52.0078958 124.458521,54.7322548 125.431464,57.2961011 C126.161664,59.2823633 128.267705,65.0730145 132.178052,62.4619073 C133.923363,61.3230735 135.174229,60.010006 135.935891,58.0368114 C136.439733,56.9678887 138.255617,57.4786107 137.834802,58.5462266 C136.400841,61.9993173 133.564818,64.9482197 129.674573,64.9996186 C125.868011,65.0540666 123.843029,59.2645043 123.12157,56.4552065 C122.316865,53.4779912 121.926202,50.4245486 121.536849,47.3667503 C121.381283,46.1303456 121.476109,44.7284191 121.152959,43.4876586 C119.707418,37.869063 116.183365,44.1924332 115.844485,45.1790305 C114.32116,49.5385712 113.998666,54.1644713 111.568602,58.1054158 C111.230595,58.7605339 109.05114,58.7265583 109.517401,58.1054158 C112.364348,54.3132231 114.669655,36.5919312 120.441769,39.2753453" id="Fill-18" fill="#FFCF00"></path>
                    <path d="M62.3233365,54.2824773 C61.0943227,54.1808402 60.1119919,54.3863144 59.7433978,55.2093115 L62.3233365,54.2824773 Z M43.0362921,31.6242093 C51.8814505,38.2158855 55.3218089,51.9140234 56.4260508,61.286202 C57.1634591,66.951044 59.1298812,84.4601356 49.3015118,86.5192782 C39.597034,88.4759036 32.3488234,77.5593681 29.7688847,71.3797404 C25.4692069,60.5648421 25.7152297,48.6176353 29.4000705,37.7008798 C32.7176376,27.8132556 38.4921319,16.6910258 49.3015118,11.0253039 C57.9006473,6.59748738 69.3246441,6.70022451 75.590964,14.1148977 C81.7331723,21.4281537 82.3464689,31.7280464 79.5218277,40.1722909 C77.4334945,46.1455643 74.1161475,50.4724036 69.0801617,53.5622174 C73.992916,55.5186228 77.8020886,59.637788 79.6448391,63.6548759 C84.1903197,73.9545486 81.2413467,87.4472123 67.3604226,90.9479746 C65.6406835,91.3604631 64.9032752,89.1972635 66.6230143,88.784995 C76.0812492,86.416541 80.0123329,78.1779908 78.908311,70.3501692 C78.2925938,66.4362583 76.6960862,62.3168732 73.5026309,59.2270594 C72.8866936,58.7122738 69.3246441,56.5492941 65.885386,55.3131486 C63.7972729,56.3427199 61.4629168,57.1668169 58.8840784,57.8870768 C58.1466701,58.093651 57.2862505,57.6816025 57.1634591,57.0638597 C56.3039196,51.9140234 61.4629168,51.5028549 66.0092776,52.5317662 C71.7828918,49.4426123 75.590964,44.9113987 77.1863714,38.3197226 C78.908311,31.7280464 79.2760249,23.3854391 74.8535558,17.3085486 C67.7290167,7.42158439 53.8467723,9.06867845 45.3695479,16.793763 C38.7366143,22.8695535 34.3141452,30.3882838 31.9800092,38.3197226 C29.2770591,47.2798526 28.0493656,57.0638597 30.7509954,66.126947 C31.9800092,70.1435949 33.5767369,74.26408 36.5254898,77.6621052 C38.4921319,80.1343962 45.8620336,87.8583808 50.1617114,83.4296843 C56.9176563,76.3232226 54.7063117,62.8316589 52.4949671,54.6947458 C50.5305256,47.6908012 47.8275754,38.2158855 41.1937617,33.1696662 C39.8428368,32.2428321 41.8074984,30.6973752 43.0362921,31.6242093 L43.0362921,31.6242093 Z" id="Fill-20" fill="#FFCF00"></path>
                    <polygon id="Fill-22" fill="#1D1D1B" points="27.0089235 10.3217351 27.0089235 14.9774463 37.3149478 14.9774463 37.3149478 19.7581195 27.0089235 19.7581195 27.0089235 23.6955172 37.7208481 23.6955172 37.7208481 28.4761905 22.2614841 28.4761905 22.2614841 5.57142857 37.7208481 5.57142857 37.7208481 10.3217351"></polygon>
                    <path d="M47.5477057,19.4814968 C46.9575152,19.4814968 46.4311351,19.404072 45.9690069,19.2500802 C45.5053332,19.0971609 45.1096649,18.9084244 44.7844308,18.6832276 C44.4569888,18.4591031 44.2050594,18.2236115 44.0264346,17.9778253 C43.8467059,17.732039 43.7572831,17.5173513 43.7572831,17.3333333 L38.9575972,17.3333333 C38.9575972,18.2536378 39.1841349,19.1284739 39.6367688,19.9565549 C40.0898444,20.7846359 40.7107256,21.5054803 41.4996334,22.1188736 C42.2896452,22.732267 43.2004329,23.2238395 44.2315551,23.5914466 C45.2626772,23.9590536 46.3686496,24.1428571 47.5477057,24.1428571 C48.2354885,24.1428571 48.8691759,24.0933138 49.4699647,24.0126719 L49.4699647,19.260375 C48.9614691,19.4051444 48.3255736,19.4814968 47.5477057,19.4814968" id="Fill-24" fill="#1D1D1B"></path>
                    <path d="M145.136488,55.8639368 C145.136488,55.8639368 145.136488,55.764484 145.049006,55.764484 L145.136488,55.8639368 Z M145.049006,55.5667267 C145.136488,55.764484 145.136488,55.8639368 145.136488,55.8639368 C145.136488,55.9636194 145.22276,56.0621535 145.22276,56.1613767 C145.39732,56.5587287 145.310242,57.0539259 145.136488,57.3515954 C145.049006,57.451278 145.049006,57.5493527 144.961726,57.5493527 L144.961726,57.6488056 C144.875252,57.7484881 144.70049,57.8470222 144.614218,57.8470222 L144.527139,57.8470222 C144.004869,58.1444621 143.047811,58.4419019 142.612821,57.8470222 C142.264708,57.451278 142.090753,56.8561686 142.351988,56.3595933 C142.003674,55.6661795 142.525742,54.8721644 143.135293,54.6739478 C143.309047,54.5756433 143.569879,54.4761905 143.831115,54.4761905 C144.004869,54.4761905 144.178422,54.5756433 144.265903,54.6739478 C144.70049,54.7736303 144.961726,55.1696043 145.049006,55.5667267 L145.049006,55.5667267 Z" id="Fill-26" fill="#1D1D1B"></path>
                    <polygon id="Fill-28" fill="#1D1D1B" points="82.8621908 9.69635282 77.5310354 9.69635282 77.5310354 27.8571429 72.7339822 27.8571429 72.7339822 9.69635282 67.4028269 9.69635282 67.4028269 4.95238095 82.8621908 4.95238095"></polygon>
                    <path d="M71.7314488,10.5238095 C70.1972726,9.66234739 68.5286021,9.05011855 66.7844523,8.66666667 L66.7844523,10.5238095 L71.7314488,10.5238095 Z" id="Fill-30" fill="#FFCF00"></path>
                    <path d="M59.3639576,10.5664466 L63.0742049,10.5664466 C61.8515731,10.4514296 60.6091028,10.4540737 59.3639576,10.5664466" id="Fill-32" fill="#FFCF00"></path>
                    <path d="M43.2245284,31.2364248 C41.9350401,30.3149705 39.8733368,31.8514567 41.2909887,32.7726923 C43.6099432,34.4441269 45.4693557,36.6052686 46.9964664,39 L46.9964664,34.5937293 C45.8566179,33.3444183 44.6047705,32.2108086 43.2245284,31.2364248" id="Fill-34" fill="#FFCF00"></path>
                    <path d="M59.9823322,55.0952381 L62.4558304,53.8883587 C61.277522,53.7560116 60.3357192,54.0235705 59.9823322,55.0952381" id="Fill-36" fill="#FFCF00"></path>
                </g>
            </g>
        </g>
    </g>
</svg>