<?xml version="1.0" encoding="UTF-8"?>
<svg width="282px" height="145px" viewBox="0 0 282 145" version="1.1" xmlns="http://www.w3.org/2000/svg" xmlns:xlink="http://www.w3.org/1999/xlink">
    <!-- Generator: Sketch 63.1 (92452) - https://sketch.com -->
    <title>LOGO</title>
    <desc>Created with Sketch.</desc>
    <defs>
        <polygon id="path-1" points="0.305359259 0.134917431 28.7264333 0.134917431 28.7264333 37.7315248 0.305359259 37.7315248"></polygon>
        <polygon id="path-3" points="0.346281481 0.12072844 28.7658519 0.12072844 28.7658519 37.7173706 0.346281481 37.7173706"></polygon>
    </defs>
    <g id="HOME---Yoga-" stroke="none" stroke-width="1" fill="none" fill-rule="evenodd">
        <g id="DES-TRUCS-BIEN-/-HOME" transform="translate(-579.000000, -92.000000)">
            <g id="HEADER" transform="translate(-127.000000, -25.000000)">
                <g id="LOGO" transform="translate(706.000000, 117.000000)">
                    <path d="M7.73576934,38.299278 C10.1610337,38.1317409 12.2273446,37.8044101 13.9368515,37.3165815 C15.6442089,36.8319207 17.0449155,36.1505094 18.1389712,35.279387 C19.2301611,34.4050969 20.0254472,33.3322965 20.5205307,32.0560581 C21.0156142,30.7819316 21.2638724,29.2698743 21.2638724,27.5244618 C21.2638724,25.479172 20.9898211,23.7826831 20.4445844,22.4402747 C19.8964819,21.0982183 19.0614315,20.0169706 17.9333432,19.193364 C16.805255,18.373277 15.3977419,17.7766902 13.7072216,17.4074751 C12.0152683,17.037908 10.0249036,16.8038488 7.73576934,16.7021299 L7.73576934,38.299278 Z M19.1112264,11.1642552 C20.2396729,11.6689782 21.391763,12.3299754 22.5696462,13.153582 C23.7493206,13.9757808 24.8068361,15.0330946 25.74685,16.3241156 C26.6850726,17.6176003 27.4649545,19.1764695 28.079331,21.0067064 C28.6926327,22.8369434 29,25.0096458 29,27.5244618 C29,30.6136906 28.5221119,33.2069956 27.5649027,35.3029689 C26.6094846,37.401054 25.3710594,39.1380193 23.8510599,40.5142167 C22.3317769,41.8904141 20.6312259,42.9480799 18.7544224,43.6851022 C16.8740365,44.4238844 15.0043977,44.9697878 13.1415654,45.3224604 C11.2805243,45.674429 9.52122245,45.8743472 7.86509289,45.9253826 C6.20753039,45.9760661 4.86736585,46 3.84280808,46 L0,46 L0,9 L3.84280808,9 C4.93507264,9 6.1039999,9.00844725 7.35281401,9.02534174 C8.59840399,9.04223624 9.88841536,9.11685359 11.2203404,9.25236152 C12.5533403,9.38646157 13.8852653,9.6050341 15.2186234,9.90667123 C16.549832,10.2083084 17.8470081,10.628207 19.1112264,11.1642552 L19.1112264,11.1642552 Z" id="Fill-1" fill="#FEFEFE"></path>
                    <g id="Group-5" transform="translate(63.000000, 0.000000)">
                        <mask id="mask-2" fill="white">
                            <use xlink:href="#path-1"></use>
                        </mask>
                        <g id="Clip-4"></g>
                        <path d="M14.2343099,37.7315248 C12.322458,37.7315248 10.5291123,37.4331028 8.85713704,36.8352128 C7.18516173,36.2376716 5.70830988,35.4386257 4.42729753,34.4415615 C3.14807531,33.4444972 2.14130988,32.2727725 1.40700123,30.9267358 C0.672692593,29.5806991 0.305359259,28.1586624 0.305359259,26.6627174 L8.08845802,26.6627174 C8.08845802,26.9618367 8.2331,27.3108092 8.5245321,27.7103321 C8.81417407,28.109855 9.22268025,28.492644 9.75398889,28.856956 C10.2813593,29.223011 10.9225815,29.5301486 11.6744333,29.7783688 C12.424137,30.0286807 13.2776679,30.1545339 14.2343099,30.1545339 C15.7702358,30.1545339 16.9817914,29.9798734 17.8693346,29.6309009 C18.7572358,29.2815798 19.4231617,28.8987908 19.8656802,28.4825339 C20.3103469,28.0680202 20.6522605,27.5109193 20.891421,26.8122771 C20.891421,26.4144972 20.8656432,26.0153229 20.8140877,25.6154514 C20.7625321,25.2162771 20.6003469,24.8519651 20.3278901,24.5176349 C19.8488531,23.9539101 19.0296926,23.5142954 17.8693346,23.1984422 C16.7079025,22.8829376 15.2750877,22.7236165 13.568742,22.7236165 C12.2709025,22.7236165 11.1015938,22.6075248 10.060458,22.3760385 C9.01932222,22.1428092 8.10564321,21.8524055 7.32013704,21.5030844 C6.53534691,21.1541119 5.85295185,20.762956 5.27187778,20.3313596 C4.69259383,19.8983688 4.21319877,19.4650294 3.83763086,19.0341303 C3.08792716,18.2364789 2.50685309,17.3969927 2.09834691,16.5163688 C1.68769259,15.6346991 1.39661852,14.8039284 1.22763086,14.0233596 C1.05542099,13.2410477 0.962334568,12.5598367 0.945149383,11.9786807 C0.927964198,11.398222 0.920803704,10.9735982 0.920803704,10.7065523 C0.920803704,10.4747174 0.953741975,10.100644 1.02248272,9.58502936 C1.09014938,9.0697633 1.23479136,8.49767156 1.45891481,7.86457064 C1.6791,7.23356147 1.98628519,6.56036881 2.3793963,5.84534128 C2.77214938,5.12996514 3.31026049,4.44213028 3.99265556,3.77556147 C6.48379136,1.35018532 9.95018642,0.134882569 14.3875444,0.134882569 C18.7572358,0.134882569 22.1720753,1.38191009 24.6306309,3.87457064 C25.4820136,4.74090092 26.1475815,5.63721284 26.6269765,6.56699266 C27.1042235,7.4985156 27.445421,8.36310275 27.6505691,9.16214862 C27.8539272,9.95770826 27.9749395,10.6392679 28.0096679,11.2050844 C28.0436802,11.7709009 28.0612235,12.1198734 28.0612235,12.2523505 L20.2759765,12.0023872 L20.2759765,12.1031394 C20.2759765,11.7036165 20.2072358,11.2469193 20.0726185,10.7316532 C19.934779,10.2163872 19.6626802,9.73458899 19.252384,9.28660734 C18.8420877,8.83688257 18.2456185,8.46385505 17.4593963,8.16368991 C16.6731741,7.86457064 15.6492235,7.71535963 14.3875444,7.71535963 C13.1584457,7.71535963 12.177458,7.83284587 11.4431494,8.06468073 C10.7088407,8.29616697 10.1453099,8.57959817 9.75398889,8.9104422 C9.36087778,9.24442385 9.09522346,9.59339633 8.9609642,9.95770826 C8.82276667,10.3237633 8.75402593,10.6242771 8.75402593,10.857855 L8.75402593,11.2050844 L8.70390247,11.2556349 C8.70390247,11.5878734 8.73684074,11.921855 8.80558148,12.2523505 C8.87468025,12.5193963 8.9609642,12.8098 9.06085309,13.1253046 C9.1639642,13.4425523 9.35228519,13.7312128 9.62617407,13.9965156 C10.4109642,14.761745 11.7259889,15.1445339 13.568742,15.1445339 C18.4146062,15.1445339 22.153458,16.1670477 24.7820753,18.211378 C27.4110506,20.2560569 28.7264333,23.1398734 28.7264333,26.8628275 C28.7264333,27.9271761 28.461137,29.0901853 27.9334086,30.3525523 C27.402458,31.6166624 26.5661123,32.7967541 25.4236556,33.894222 C24.2790506,34.9902954 22.7857296,35.905433 20.9415444,36.6354514 C19.0984333,37.3658183 16.8629272,37.7315248 14.2343099,37.7315248" id="Fill-3" fill="#FEFEFE" mask="url(#mask-2)"></path>
                    </g>
                    <path d="M156.574723,27.3379628 C156.975962,27.3379628 157.495191,27.2802405 158.12891,27.1616282 C158.762629,27.0447757 159.379542,26.8093109 159.979999,26.4566417 C160.583608,26.1039725 161.089182,25.6024219 161.507227,24.9467106 C161.925271,24.292759 162.134293,23.4114379 162.134293,22.304859 C162.134293,20.5591111 161.908115,19.1748316 161.456809,18.1509646 C161.008655,17.1274495 160.472269,16.3562935 159.855356,15.8346809 C159.237743,15.3158841 158.611027,14.9804612 157.977308,14.8277082 C157.343589,14.6770671 156.857971,14.6006906 156.523956,14.6006906 L147.511844,14.6006906 L147.511844,27.3379628 L156.574723,27.3379628 Z M166.490147,30.8628952 C167.457882,31.7340094 168.29432,32.7166965 168.995262,33.8081409 C169.696555,34.8978254 170.273204,36.0212987 170.722059,37.1803204 C171.173365,38.3379342 171.497226,39.5039953 171.699596,40.6781515 C171.898465,41.8544195 172,42.9609984 172,44 L168.243903,44 L164.437038,44 C164.437038,43.7659431 164.41358,43.3731498 164.363163,42.8170446 C164.312395,42.2648111 164.204558,41.6513356 164.0358,40.9801377 C163.870543,40.3089399 163.618106,39.6208478 163.287241,38.9162132 C162.953926,38.2108748 162.491767,37.5565713 161.908115,36.9533028 C161.325164,36.3500342 160.596912,35.8618584 159.730713,35.4926468 C158.860663,35.124843 157.812051,34.9404132 156.574723,34.9404132 L147.511844,34.9404132 L147.511844,44 L140,44 L140,7 L156.574723,7 C156.70952,7 157.077497,7.02569347 157.677254,7.07637647 C158.277011,7.12741144 159.005263,7.27629276 159.855356,7.52865188 C160.708251,7.78171493 161.63187,8.15761387 162.637067,8.6623321 C163.638063,9.16423462 164.605797,9.88611544 165.539919,10.8248069 C168.311126,13.6113162 169.696555,17.4375309 169.696555,22.304859 C169.696555,24.2163826 169.403854,25.8769548 168.820202,27.2869278 C168.233399,28.6969008 167.457882,29.8900632 166.490147,30.8628952 L166.490147,30.8628952 Z" id="Fill-6" fill="#FEFEFE"></path>
                    <path d="M209,7 L209,27.191475 C209,28.1686696 208.898002,29.2527946 208.68745,30.4470261 C208.480541,31.6419633 208.140306,32.8619568 207.673666,34.105595 C207.20302,35.3527622 206.579013,36.5727557 205.79691,37.7659284 C205.014442,38.9615715 204.0502,40.0220518 202.902726,40.9463107 C201.75926,41.8709225 200.412526,42.6120236 198.865076,43.1674965 C197.321998,43.7229694 195.539953,44 193.526592,44 L193.473408,44 C191.390106,44 189.460893,43.6650929 187.689048,42.990338 C185.917932,42.3180535 184.374125,41.3235664 183.055441,40.0118176 C181.803055,38.8020583 180.838085,37.4973675 180.161622,36.1002156 C179.484066,34.7037694 178.989741,33.3750811 178.677556,32.1141505 C178.36537,30.8500439 178.172303,29.7592137 178.10564,28.8310728 C178.035335,27.9071668 178,27.3428713 178,27.1424211 L178,7 L185.970388,7 L185.970388,27.191475 C185.970388,27.4618004 185.987873,27.8658769 186.022844,28.4029987 C186.058179,28.9418851 186.163455,29.5485292 186.335394,30.2211667 C186.510247,30.894157 186.752491,31.5840868 187.064677,32.2909561 C187.376863,32.9960608 187.822374,33.6535233 188.393925,34.258403 C188.966204,34.8636355 189.670717,35.3527622 190.506005,35.7233127 C191.33765,36.0935104 192.344148,36.2770211 193.526592,36.2770211 C195.298073,36.2770211 196.679777,35.8725917 197.669154,35.0654973 C198.658531,34.258403 199.405664,33.3341441 199.907274,32.2909561 C200.412526,31.2474152 200.724348,30.2211667 200.847109,29.210446 C200.966592,28.200784 201.029976,27.5126187 201.029976,27.1424211 L201.029976,7 L209,7 Z" id="Fill-8" fill="#FEFEFE"></path>
                    <path d="M249,35.2286063 C248.195266,36.5382534 247.242366,37.7330069 246.136033,38.8089899 C245.030753,39.8846205 243.81031,40.8079993 242.471545,41.5798312 C241.132078,42.3537777 239.691843,42.9493923 238.15049,43.3701993 C236.611946,43.7910062 235.019331,44 233.38002,44 C230.836963,44 228.450499,43.5125829 226.225193,42.5388059 C223.997078,41.565029 222.056167,40.23776 220.399651,38.5559419 C218.742784,36.8744761 217.427894,34.9195211 216.457088,32.6829707 C215.486632,30.4495923 215,28.054094 215,25.5 C215,22.945906 215.486632,20.5518174 216.457088,18.3170293 C217.427894,16.0818887 218.742784,14.1255239 220.399651,12.4437057 C222.056167,10.7636497 223.997078,9.43673322 226.225193,8.46084165 C228.450499,7.4870647 230.836963,7 233.38002,7 C235.019331,7 236.611946,7.21040349 238.15049,7.6294483 C239.691843,8.05025528 241.132078,8.64763202 242.471545,9.41981635 C243.81031,10.1916483 245.030753,11.1252477 246.136033,12.2177951 C247.242366,13.3110474 248.195266,14.510735 249,15.8224968 L243.374237,21.4660329 C242.97187,20.4584222 242.444159,19.5350434 241.791805,18.6934295 C241.1391,17.8553399 240.378254,17.1324964 239.508917,16.5284234 C238.636771,15.9225882 237.683871,15.4524404 236.645652,15.1165701 C235.607433,14.7803475 234.519006,14.6108264 233.38002,14.6108264 C231.908888,14.6108264 230.50868,14.8973558 229.187119,15.4697097 C227.864855,16.0395965 226.718496,16.821649 225.748743,17.8126953 C224.778287,18.8037415 224.00726,19.9562028 223.439171,21.2662025 C222.867571,22.5762021 222.583878,23.9877029 222.583878,25.5 C222.583878,27.0119447 222.867571,28.4234455 223.439171,29.7334451 C224.00726,31.0434447 224.778287,32.1962585 225.748743,33.1869523 C226.718496,34.1794083 227.864855,34.9600511 229.187119,35.5302903 C230.50868,36.104054 231.908888,36.3888212 233.38002,36.3888212 C234.519006,36.3888212 235.607433,36.2196525 236.645652,35.8830774 C237.683871,35.5475596 238.636771,35.0770594 239.508917,34.4715766 C240.378254,33.8675036 241.1391,33.1548807 241.791805,32.3301836 C242.444159,31.5068963 242.97187,30.5923284 243.374237,29.5826031 L249,35.2286063 Z" id="Fill-10" fill="#FEFEFE"></path>
                    <g id="Group-14" transform="translate(253.000000, 7.000000)">
                        <mask id="mask-4" fill="white">
                            <use xlink:href="#path-3"></use>
                        </mask>
                        <g id="Clip-13"></g>
                        <path d="M14.2748741,37.7173706 C12.3619481,37.7173706 10.5686025,37.4186 8.89698519,36.8210587 C7.22500988,36.2235174 5.7492321,35.4244716 4.46642963,34.4274073 C3.18720741,33.4303431 2.1808,32.2586183 1.44649136,30.9125817 C0.712182716,29.5661963 0.346281481,28.1445083 0.346281481,26.6485633 L8.12830617,26.6485633 C8.12830617,26.9476826 8.27259012,27.296655 8.56581235,27.696178 C8.85545432,28.0957009 9.2625284,28.4788385 9.79347901,28.8428018 C10.3244296,29.2088569 10.9620716,29.5159945 11.7132074,29.7645633 C12.4650593,30.0145266 13.3168,30.1403798 14.2748741,30.1403798 C15.8090099,30.1403798 17.0234296,29.9657193 17.9091827,29.6167468 C18.798516,29.2674257 19.464084,28.8846367 19.9087506,28.4683798 C20.3501951,28.0538661 20.6910346,27.4967651 20.9327012,26.7981229 C20.9327012,26.4003431 20.9054914,26.0011688 20.8532198,25.6016459 C20.8013062,25.2021229 20.639479,24.837811 20.3673802,24.5034807 C19.8876272,23.939756 19.0709728,23.5001413 17.9091827,23.1842881 C16.7509728,22.8687835 15.3163679,22.7094624 13.6096642,22.7094624 C12.3096765,22.7094624 11.141442,22.5937193 10.1003062,22.3618844 C9.05917037,22.128655 8.14513333,21.8382514 7.36249136,21.4889303 C6.57626914,21.1399578 5.89387407,20.7488018 5.31494815,20.3172055 C4.73208395,19.8842147 4.25268889,19.4512239 3.88034321,19.0199761 C3.12920741,18.2223248 2.54562716,17.3831872 2.13926914,16.5022147 C1.72897284,15.6208936 1.43933086,14.7897743 1.26712099,14.0092055 C1.09491111,13.2268936 1.00146667,12.5456826 0.984281481,11.9645266 C0.967096296,11.3840679 0.960651852,10.9590954 0.960651852,10.6923982 C0.960651852,10.4605633 0.995022222,10.0864899 1.06376296,9.57122385 C1.12892346,9.05560917 1.27392346,8.48351743 1.49804691,7.85041651 C1.71859012,7.21940734 2.02577531,6.54621468 2.41817037,5.83118716 C2.81163951,5.11581101 3.34903457,4.42797615 4.03214568,3.76140734 C6.52471358,1.33603119 9.99003457,0.12072844 14.4266765,0.12072844 C18.798516,0.12072844 22.2119235,1.36775596 24.670121,3.86041651 C25.5215037,4.72639817 26.1870716,5.62271009 26.6661086,6.55283853 C27.1455037,7.48436147 27.4863432,8.34894862 27.6900593,9.1479945 C27.8969975,9.94355413 28.0140716,10.6251138 28.048442,11.1909303 C28.0831704,11.7567468 28.1007136,12.1057193 28.1007136,12.2381963 L20.3154667,11.988233 L20.3154667,12.0889853 C20.3154667,11.6894624 20.2467259,11.2327651 20.1121086,10.7174991 C19.9742691,10.202233 19.7021704,9.72008624 19.291516,9.27210459 C18.884442,8.82237982 18.2847506,8.44970092 17.4985284,8.14953578 C16.7158864,7.85041651 15.6922938,7.70085688 14.4266765,7.70085688 C13.1997259,7.70085688 12.2165901,7.81869174 11.4826395,8.05017798 C10.7483309,8.28201284 10.1862321,8.56544404 9.79347901,8.89628807 C9.40000988,9.23061835 9.13471358,9.57959083 9.00045432,9.94355413 C8.86261481,10.3096092 8.79351605,10.6101229 8.79351605,10.8437009 L8.79351605,11.1909303 L8.74518272,11.2414807 C8.74518272,11.5733706 8.77633086,11.9077009 8.84542963,12.2381963 C8.91417037,12.5052422 9.00045432,12.7956459 9.10356543,13.1111505 C9.20345432,13.4283982 9.39356543,13.7170587 9.6656642,13.9823615 C10.4518864,14.7475908 11.765121,15.1303798 13.6096642,15.1303798 C18.4573185,15.1303798 22.1947383,16.1528936 24.8215654,18.1972239 C27.4523309,20.2419028 28.7659235,23.1257193 28.7659235,26.8486734 C28.7659235,27.9126734 28.5006272,29.0760312 27.9728988,30.3383982 C27.4423062,31.6025083 26.6070346,32.7826 25.4631457,33.8800679 C24.3181827,34.9764899 22.8252198,35.8912789 20.9806765,36.6212972 C19.1397136,37.3516642 16.9020593,37.7173706 14.2748741,37.7173706" id="Fill-12" fill="#FEFEFE" mask="url(#mask-4)"></path>
                    </g>
                    <path d="M141.885471,51.2679051 C142.290626,51.1358888 142.830833,51 143.371396,51 C145.529727,51.1358888 146.475089,54.2000759 144.855538,55.6680976 C143.371396,56.8682141 140.670719,56.8682141 140.401329,54.5999974 C140.132294,53.2678646 140.670719,51.6678266 141.885471,51.2679051 M138.776789,65.8044878 C135.134315,73.2695714 131.354294,84.4701893 134.457988,92.6034516 C138.237652,102.468416 152.272688,96.4713542 156.05057,89.9384819 C157.13134,88.2025551 159.830591,89.8029451 158.749109,91.5353515 C154.43102,98.8677147 140.936903,104.868297 133.919563,97.9355033 C125.821453,90.0708503 132.164248,72.3373601 136.077895,64.3399866 C136.887492,62.4720434 139.586743,64.0724335 138.776789,65.8044878" id="Fill-15" fill="#FFCF00"></path>
                    <path d="M157.691456,83.566066 C162.089696,79.685261 166.60225,69.5596271 167.268367,63.4085477 C167.699383,59.4336435 164.519781,54.5695193 163.430916,57.6181235 C162.069205,61.060965 160.844097,62.7820359 160.163601,66.2248773 C159.074736,70.9945525 157.828418,78.5301846 157.691456,83.566066 M158.257997,88.0866757 C158.530124,89.5422399 158.801172,91.0009525 159.2099,92.4558171 C160.435368,97.2258421 164.92851,107.163278 171.054052,100.537504 C173.778552,97.7586045 175.547194,94.7093006 176.909264,91.1321316 C177.452798,89.2791819 180.58423,90.0743027 179.903734,91.9272524 C176.636059,101.200746 164.111772,114.183638 157.984433,99.0819401 C154.581594,90.6032172 154.444632,81.1981943 155.807062,72.3220859 C156.760762,66.3595546 158.758034,56.7876718 163.023266,53.2458338 C163.484838,52.8617412 164.248374,52.9796275 164.657103,53.2458338 C168.876681,55.4993173 170.82003,60.0818435 170.31532,64.082284 C168.874524,75.4819301 163.253333,80.7637288 158.257997,88.0866757" id="Fill-17" fill="#FFCF00"></path>
                    <path d="M194.385208,62.4447886 C199.99409,65.0229087 198.751128,73.5418224 199.498081,78.6087008 C200.11887,83.0127547 200.73966,87.4136423 202.27919,91.5552402 C203.434011,94.7638176 206.766088,104.117947 212.951862,99.9000042 C215.712923,98.0603494 217.691776,95.9392405 218.896716,92.7517722 C219.693788,91.025051 222.566495,91.8500635 221.900771,93.5746738 C219.632262,99.1527434 215.14571,103.916355 208.99139,103.999384 C202.969455,104.087338 199.76596,94.7349686 198.62462,90.1968721 C197.351587,85.3875242 196.733562,80.4550401 196.117612,75.5155196 C195.871508,73.5182506 196.021521,71.2536001 195.510303,69.2492947 C193.223475,60.1731017 187.648467,70.3877767 187.112707,71.9815109 C184.702827,79.0238457 184.1923,86.4964536 180.347968,92.8625948 C179.813245,93.9208624 176.365375,93.8659789 177.102995,92.8625948 C181.606829,86.7367451 185.253795,58.1100428 194.385208,62.4447886" id="Fill-19" fill="#FFCF00"></path>
                    <path d="M101.136461,86.5723884 C99.171301,86.4106557 97.6005809,86.7376218 97.0112089,88.0472367 L101.136461,86.5723884 Z M70.2970028,50.516846 C84.4401697,61.0060175 89.9412089,82.8035261 91.7068616,97.7172425 C92.8859573,106.731566 96.0302126,134.593351 80.3149181,137.870014 C64.797723,140.983543 53.2080319,123.61233 49.0827803,113.778841 C42.2077129,96.5693604 42.6010966,77.5580652 48.4930566,60.1865017 C53.7977557,44.4525695 63.0313665,26.7540398 80.3149181,17.7383163 C94.065053,10.6924413 112.33136,10.8559243 122.351035,22.6547107 C132.172258,34.2921144 133.152903,50.6820794 128.636379,64.1191971 C125.297191,73.6243196 119.992843,80.5095122 111.94044,85.4262566 C119.7958,88.5394363 125.886915,95.094162 128.83307,101.486455 C136.10117,117.87607 131.385843,139.346612 109.190624,144.917289 C106.440808,145.573322 105.261712,142.131426 108.011528,141.475393 C123.135339,137.706531 129.420683,124.596729 127.655382,112.14051 C126.670867,105.9124 124.118095,99.3573242 119.011847,94.4405798 C118.02698,93.6214141 112.33136,90.179518 106.832432,88.2124701 C103.493245,89.8508015 99.760673,91.1621667 95.6371807,92.3082985 C94.458085,92.637015 93.0822974,91.9813324 92.8859573,90.9983336 C91.5115772,82.8035261 99.760673,82.1492438 107.03018,83.786525 C116.262031,78.8708307 122.351035,71.6604224 124.902048,61.1712509 C127.655382,50.6820794 128.243699,37.4066944 121.171939,27.7366886 C109.779996,12.0038065 87.5826656,14.6247866 74.0281669,26.9175229 C63.4222872,36.5857784 56.3505279,48.5501482 52.6183082,61.1712509 C48.2963647,75.4292847 46.3333163,90.9983336 50.6531486,105.4202 C52.6183082,111.811793 55.1714321,118.368619 59.8864075,123.775813 C63.0313665,127.709909 74.8156382,140.000895 81.6903538,132.953619 C92.4929254,121.645282 88.9570458,100.17649 85.4211661,87.2284211 C82.2800776,76.0832169 77.9581341,61.0060175 67.3508469,52.9760934 C65.1907549,51.5012451 68.3321952,49.0419977 70.2970028,50.516846 L70.2970028,50.516846 Z" id="Fill-21" fill="#FFCF00"></path>
                    <polygon id="Fill-23" fill="#FEFEFE" points="43.6772877 16.6735722 43.6772877 24.1943363 60.3436013 24.1943363 60.3436013 31.9169623 43.6772877 31.9169623 43.6772877 38.277374 61 38.277374 61 46 36 46 36 9 61 9 61 16.6735722"></polygon>
                    <path d="M77.0742896,29.7855748 C76.1763458,29.7855748 75.3751864,29.6491339 74.6714835,29.3777638 C73.9657642,29.1082835 73.3638865,28.775685 72.8688748,28.3788346 C72.3701666,27.983874 71.9867258,27.5688819 71.7148558,27.135748 C71.4413056,26.7026142 71.3055386,26.3242835 71.3055386,26 L64,26 C64,27.6217953 64.3447943,29.1634646 65.0340468,30.6227402 C65.7232992,32.0820157 66.6682909,33.352315 67.8690219,34.4332598 C69.0714331,35.5142047 70.4576673,36.3804724 72.0270526,37.0282835 C73.5964378,37.6760945 75.2797463,38 77.0742896,38 C78.1211065,38 79.0855895,37.9126929 80,37.7705827 L80,29.3959055 C79.2263973,29.6510236 78.2582176,29.7855748 77.0742896,29.7855748" id="Fill-25" fill="#FEFEFE"></path>
                    <path d="M233.647721,88.2417441 C233.647721,88.2417441 233.647721,88.0810895 233.477957,88.0810895 L233.647721,88.2417441 Z M233.477957,87.7616354 C233.647721,88.0810895 233.647721,88.2417441 233.647721,88.2417441 C233.647721,88.4027698 233.815139,88.5619403 233.815139,88.7222239 C234.153886,89.3641003 233.984904,90.1640341 233.647721,90.6448849 C233.477957,90.8059105 233.477957,90.964339 233.308584,90.964339 L233.308584,91.1249936 C233.141166,91.2860193 232.801637,91.4451898 232.634219,91.4451898 L232.465237,91.4451898 C231.451735,91.9256695 229.594495,92.4061493 228.750366,91.4451898 C228.074828,90.8059105 227.737255,89.84458 228.244201,89.04242 C227.568272,87.92229 228.581384,86.6396503 229.764259,86.3194541 C230.101441,86.1606546 230.607997,86 231.114553,86 C231.451735,86 231.788526,86.1606546 231.958681,86.3194541 C232.801637,86.4804797 233.308584,87.12013 233.477957,87.7616354 L233.477957,87.7616354 Z" id="Fill-27" fill="#FEFEFE"></path>
                    <polygon id="Fill-29" fill="#FEFEFE" points="133 14.6633392 124.37876 14.6633392 124.37876 44 116.62124 44 116.62124 14.6633392 108 14.6633392 108 7 133 7"></polygon>
                    <path d="M115,16 C112.208895,14.6084073 109.173107,13.6194223 106,13 L106,16 L115,16 Z" id="Fill-31" fill="#FFCF00"></path>
                    <path d="M96,16.0679381 L102,16.0679381 C100.02283,15.8846694 98.0135777,15.8888824 96,16.0679381" id="Fill-33" fill="#FFCF00"></path>
                    <path d="M70.5102403,50.45884 C68.6331552,48.9703369 65.6328439,51.4523532 67.6961251,52.940503 C71.0711812,55.6405127 73.7770742,59.1315878 76,63 L76,55.882178 C74.3407038,53.8640603 72.5187381,52.0328447 70.5102403,50.45884" id="Fill-35" fill="#FFCF00"></path>
                    <path d="M97,88 L101,87.0252873 C99.094507,86.9181684 97.5714773,87.1344884 97,88" id="Fill-37" fill="#FFCF00"></path>
                </g>
            </g>
        </g>
    </g>
</svg>