<?xml version="1.0" encoding="UTF-8"?>
<svg width="114px" height="102px" viewBox="0 0 114 102" version="1.1" xmlns="http://www.w3.org/2000/svg" xmlns:xlink="http://www.w3.org/1999/xlink">
    <!-- Generator: Sketch 63.1 (92452) - https://sketch.com -->
    <title>Group 17</title>
    <desc>Created with Sketch.</desc>
    <g id="HOME---Yoga-" stroke="none" stroke-width="1" fill="none" fill-rule="evenodd">
        <g id="DES-TRUCS-BIEN-/-HOME" transform="translate(-1017.000000, -506.000000)">
            <g id="HEADER" transform="translate(-127.000000, -25.000000)">
                <g id="BLOC-3" transform="translate(1067.000000, 470.000000)">
                    <g id="Group-17" transform="translate(78.000000, 62.000000)">
                        <path d="M95.3809116,84.5484453 C96.817046,83.6840523 96.0859181,82.6631581 96.054411,81.68213 C95.9224579,81.6718941 95.7905048,81.6616582 95.658821,81.6514224 C95.5661845,82.6170967 95.4735481,83.582771 95.3809116,84.5484453 L95.3809116,84.5484453 Z M103.474484,79.8423656 C103.564427,79.8771137 103.654371,79.9121312 103.744584,79.9468793 C104.471672,78.2463767 105.19876,76.5453353 105.951432,74.7847643 C105.499829,74.6069832 105.143556,74.4663746 104.732077,74.3044861 C104.577234,74.7222715 104.448513,75.070022 104.267549,75.5591893 C104.667986,75.2335267 104.926237,75.0236912 105.184219,74.8135864 C105.268238,74.8776953 105.351988,74.9418042 105.436007,75.0056438 C104.782166,76.6180639 104.128055,78.2302148 103.474484,79.8423656 L103.474484,79.8423656 Z M103.319641,78.2275211 C103.203037,78.1696076 103.086164,78.1116941 102.969561,78.0535112 C102.076589,80.0917978 101.183886,82.129815 100.215242,84.3407647 C100.808223,84.2912015 101.174999,84.2604938 101.316377,84.2486418 C101.316377,83.6953656 101.211084,83.2934727 101.333881,82.9815478 C101.963486,81.3842121 102.652066,79.8097724 103.319641,78.2275211 L103.319641,78.2275211 Z M93.1142806,73.2062841 L92.8980391,73.2173281 L92.8980391,84.7264957 C92.9702093,84.7243407 93.0421103,84.7221858 93.1142806,84.7197615 L93.1142806,73.2062841 Z M97.0133599,84.802726 C97.4342633,84.4611709 97.5554448,84.4105303 97.5597534,84.352078 C97.7331775,81.8968141 97.9009464,79.4410114 98.0501342,76.9841313 C98.0595594,76.826822 97.9351465,76.5377931 97.8382014,76.5216312 C97.5788732,76.4790715 97.0664104,76.5404868 97.0642561,76.5806222 C96.9961252,77.9554622 96.9419975,79.333804 96.960848,80.7102603 C96.9724275,81.5622625 97.1310405,82.4113016 97.1727808,83.2641119 C97.1929777,83.667621 97.0936089,84.0770561 97.0133599,84.802726 L97.0133599,84.802726 Z M86.0868357,83.5682252 C86.0744483,83.7874885 86.0623302,84.0067518 86.0499427,84.2262845 C87.9778044,84.397062 89.9053967,84.5675702 91.8733829,84.7421188 C91.8389135,83.9822396 91.8119843,83.385865 91.7794,82.6680067 C89.8763132,82.969157 87.9813052,83.2686911 86.0868357,83.5682252 L86.0868357,83.5682252 Z M98.5712143,84.4406992 L98.8873631,84.5732269 C100.865313,81.6349911 100.04855,78.0852963 100.649879,74.7605214 C100.149266,75.0344658 99.6327635,75.4034962 99.5740578,75.8347499 C99.1849308,78.6959472 98.8940954,81.5703434 98.5712143,84.4406992 L98.5712143,84.4406992 Z M94.1087761,84.7186841 C94.2353433,84.7286506 94.3619106,84.7383477 94.4884778,84.7483142 C94.5883852,83.8354355 95.0402572,82.7590521 94.7101052,82.0452343 C94.1497084,80.8341683 94.7402659,79.9902471 95.4032628,79.5371748 C96.3552102,78.8863884 96.2035988,78.1125022 96.2264886,77.2850122 C96.2491091,76.461024 96.2313358,75.635689 96.2313358,74.8111621 C95.3087413,75.2806656 94.2337276,75.832595 94.1906408,76.4556367 C94.0007899,79.1988521 94.1087761,81.9622698 94.1087761,84.7186841 L94.1087761,84.7186841 Z M103.436783,84.9058929 C97.6782419,85.751969 92.055155,85.7465817 86.2818032,85.1194995 C86.3281214,85.7220695 86.3178883,86.2492172 86.4159106,86.7556238 C86.9919263,89.725106 87.6174916,92.684891 88.1776191,95.6570668 C88.5882894,97.8354233 89.2375525,98.853085 91.0797793,99.0031215 C93.2295376,99.1782089 95.4102644,98.9977342 97.5764495,98.932009 C99.8277309,98.8643984 100.601676,97.196489 101.048432,95.4135606 C101.913398,91.9638003 102.633754,88.477945 103.436783,84.9058929 L103.436783,84.9058929 Z M27.9205649,96.2558656 C28.4709979,96.5222678 28.878706,96.8533177 29.3227685,96.9131168 C32.2763635,97.3106998 35.2299585,97.8343458 38.1986339,97.9644492 C42.4757992,98.151658 46.7699299,98.156776 51.0500575,98.0237095 C56.1442548,97.8653228 61.2317199,97.4860566 66.3208007,97.1800577 C66.8173752,97.1498888 67.3042552,96.9613331 67.7957131,96.8463142 C67.9168945,96.6429434 68.0378067,96.4398421 68.1587188,96.2367407 C67.6696845,95.9431326 67.1572217,95.681579 66.6959245,95.349721 C65.6513407,94.5981921 64.3945548,93.9923897 63.6445765,93.0067824 C61.0933038,89.6545323 60.3258215,85.7646292 60.7558809,81.6112869 C60.8275125,80.9227895 60.8864875,80.2329451 60.9583885,79.4722578 L37.0229049,79.4722578 C36.9116873,81.4219232 36.8812573,83.2856611 36.6835969,85.1313516 C36.3292086,88.4415807 35.2929729,91.400827 32.234354,93.2769557 C30.8369976,94.1340758 29.5295848,95.1374613 27.9205649,96.2558656 L27.9205649,96.2558656 Z M94.3287876,74.7370866 C96.9239549,73.7477082 97.734524,72.4288961 97.7913446,69.1329433 C97.9041779,62.585483 98.0067782,56.0369453 98.1837031,49.4908318 C98.3727461,42.4970333 98.7869172,35.5059285 98.827311,28.5121301 C98.8545095,23.7750734 98.3444704,19.0372086 98.1936669,14.2958421 C98.1115328,11.7042793 98.3075774,9.10490498 98.3043459,6.5090324 C98.3038073,5.97999911 98.1303832,5.25001938 97.7633382,4.96449225 C97.0020496,4.37215814 96.1031528,3.80191198 95.1789426,3.60312045 C92.4739041,3.02129158 89.7438215,2.362963 86.9965042,2.20646181 C78.7664012,1.7372276 70.5247186,1.43419173 62.2841131,1.18368208 C57.5798506,1.04011042 52.868048,1.06650821 48.1608233,1.12145872 C41.3956689,1.20038273 34.6315916,1.36415678 27.8675144,1.51338511 C24.7776577,1.58180387 21.6810686,1.59715769 18.6022528,1.82746495 C14.8130446,2.11137589 11.0162963,2.4550859 7.26990556,3.06250446 C5.82569239,3.2968522 4.14154003,3.97080397 3.90079296,5.86982874 C3.68212783,7.59430485 3.61103473,9.34033018 3.54263456,11.0796214 C3.35493801,15.8374192 3.14973748,20.5957557 3.05279235,25.3557085 C2.96796536,29.5157848 2.99274023,33.6788243 3.0207466,37.8402475 C3.05306164,42.6144766 3.18851553,47.3887056 3.19524784,52.1629347 C3.2030573,57.9674858 3.0005497,63.7752692 3.14435164,69.5755104 C3.19874863,71.7603316 3.89136774,73.9470385 4.44099277,76.0949567 C4.72482657,77.2031252 5.76887178,77.6526957 6.84092335,77.7413169 C7.64799157,77.8081195 8.47202518,77.6408437 9.28932649,77.6276448 C9.63967543,77.6217187 9.99083224,77.7836072 10.3444127,77.7978836 C17.1542695,78.0769459 23.9635878,78.5410622 30.7747912,78.573386 C43.5548524,78.6339932 56.3376065,78.5367524 69.1157827,78.3115631 C74.30127,78.2202482 79.4797558,77.6486553 84.6579722,77.2462236 C87.0546713,77.0598229 89.4422144,76.7559789 91.8809231,76.5003513 C92.1469836,74.7723735 91.3000602,72.9005546 93.3103252,71.4513697 C93.6870647,72.6667456 94.0096766,73.7073034 94.3287876,74.7370866 L94.3287876,74.7370866 Z M98.4936582,78.2563432 C99.3548541,76.2536128 98.3759776,73.4559857 101.263865,72.6422334 C102.566431,73.9790929 101.255248,75.4199275 101.237744,76.8349029 C101.219432,78.3083307 100.824381,79.7769098 100.732821,81.2896649 C101.799756,79.0035623 102.843263,76.705877 103.957863,74.4432092 C104.135596,74.0825292 104.736386,73.5782775 104.961245,73.6569321 C105.688064,73.9117516 106.816128,74.0582863 106.441274,75.2833593 C106.052147,76.5558406 105.563382,77.8030015 105.037993,79.0272664 C104.531724,80.2068167 103.923932,81.3427298 103.329066,82.5624155 C104.279128,83.070169 104.312251,83.6110543 103.941167,84.6809729 C103.385348,86.2828879 103.381309,88.0765909 103.139484,89.8110335 C106.06992,89.9632248 109.034825,90.1170324 112,90.2708399 C111.98842,90.4631667 111.97711,90.6554934 111.965531,90.8478202 C109.014898,90.7179862 106.064265,90.5884215 103.012109,90.4540082 C102.770554,91.2755722 102.516343,92.2129631 102.219313,93.1368858 C101.649761,94.9060765 101.145108,96.7062443 100.414518,98.4078243 C100.211203,98.8821765 99.342736,99.1852124 98.7220178,99.3468315 C95.4226519,100.205568 92.1308261,100.414595 88.9933046,98.7466858 C88.5923288,98.5333485 88.1991624,98.0043152 88.1070646,97.5585158 C87.2536781,93.4251066 86.4681533,89.2776904 85.6589307,85.1351227 C85.6085731,84.8765321 85.5412501,84.6182108 85.4513065,84.3709336 C85.1453908,83.5307835 85.5967242,82.8051136 86.4342225,82.7116439 C88.2215137,82.5115055 90.0044962,82.2723092 91.9302035,82.0312273 C92.0166463,80.4697172 92.0993189,78.9785113 92.1863002,77.4132301 C82.0229497,78.1262398 72.0227901,78.8282055 61.8448978,79.5422927 C61.0284044,82.3450378 61.0978817,85.4055654 62.1486592,88.4170685 C62.2693021,88.7632028 63.0187418,89.083478 63.4797697,89.0880572 C68.5044898,89.1370817 73.5302869,89.0950607 78.5555455,89.1343881 C80.8353718,89.1524355 83.1146596,89.2930442 85.3939473,89.3908237 C85.5910691,89.3991741 85.7844208,89.5018022 85.9451881,89.8775667 L62.7184812,89.8775667 C63.1787013,92.3349855 65.1116795,93.5368931 66.9862213,94.8513954 C67.6408702,95.3103937 68.0709296,96.1330351 68.4786377,96.8597824 C68.5459607,96.9799193 67.9933735,97.7077441 67.6839569,97.7397986 C64.5378181,98.0670773 61.3868321,98.4172521 58.2285751,98.5446619 C54.6437596,98.6890416 51.0497882,98.5936863 47.4601254,98.6381316 C44.6444079,98.6731491 41.820881,98.9247362 39.0153966,98.7841275 C35.9099209,98.6284345 32.8184484,98.1581228 29.7272452,97.7707756 C29.1730422,97.7012794 28.6040281,97.444305 28.1257655,97.1412691 C27.3111571,96.6251653 27.3523588,95.7971367 28.1763924,95.2562513 C29.2207069,94.5712556 30.2771395,93.9037686 31.3400352,93.2481336 C33.8983094,91.6696535 35.3888408,89.3388363 35.7914324,86.419456 C36.100849,84.1745663 36.0965403,81.8863088 36.2543454,79.23791 C34.2691246,79.23791 32.510109,79.2651159 30.7524399,79.2327921 C25.7818476,79.1409385 20.8096396,79.0816782 15.8425481,78.8944694 C13.3518661,78.8001916 10.8727636,78.429545 8.3836974,78.2404506 C7.72662484,78.1903487 7.04639317,78.4451682 6.38932061,78.3942582 C4.78110861,78.2695421 3.91587331,77.2925544 3.40206412,75.6820198 C1.6252753,70.1115472 1.96673759,64.4125873 2.1625129,58.7028528 C2.331359,53.7753549 2.43315139,48.8430084 2.42372617,43.9130863 C2.41780174,40.930944 2.01655662,37.9493404 2.02275033,34.9682755 C2.03029051,31.4568306 2.3076613,27.9472712 2.4261498,24.4352875 C2.48781767,22.617611 2.41834033,20.7953553 2.47973891,18.9776789 C2.61303846,15.0190877 2.79157908,11.0621126 2.95234642,7.10432953 C2.98331501,6.34768263 2.7199474,5.33756308 3.10718934,4.8820665 C4.29018923,3.48998706 5.75621505,2.43245922 7.68246095,2.09844636 C12.8854523,1.19634225 18.1374548,0.934788623 23.397536,0.72549185 C29.4224066,0.486295539 35.4453922,0.182451575 41.4721478,0.0157145069 C44.2270053,-0.0605158492 46.9891337,0.164404106 49.7485691,0.182451575 C56.0349223,0.223664453 62.3239684,0.120497576 68.6076286,0.265685427 C74.6432709,0.405216609 80.682414,0.660844199 86.7018987,1.10987601 C89.6086369,1.32671501 92.4946396,2.01198012 95.3496737,2.66330521 C97.0427127,3.04930557 98.3913272,4.13727167 99.2048584,5.72437153 C99.3465061,6.00074024 99.1324189,6.45758364 99.088255,6.83173193 C99.0475919,7.17598067 98.9732673,7.52265371 98.9845776,7.86582499 C99.1547701,13.0082763 99.4070968,18.1493808 99.4943474,23.2934484 C99.5729807,27.9270688 99.5325868,32.5652685 99.4364496,37.1988889 C99.3319643,42.2131224 99.0640187,47.2241235 98.9369129,52.2380876 C98.794996,57.840076 98.7567565,63.4442193 98.6202254,69.0464771 C98.5677135,71.1978971 98.3310058,73.3439297 98.2550655,75.4953497 C98.2243662,76.3640525 98.3988674,77.2402976 98.4936582,78.2563432 L98.4936582,78.2563432 Z" id="Fill-1" fill="#1D1D1B"></path>
                        <path d="M95.3809116,84.5484453 C96.817046,83.6840523 96.0859181,82.6631581 96.054411,81.68213 C95.9224579,81.6718941 95.7905048,81.6616582 95.658821,81.6514224 C95.5661845,82.6170967 95.4735481,83.582771 95.3809116,84.5484453 Z M103.474484,79.8423656 C103.564427,79.8771137 103.654371,79.9121312 103.744584,79.9468793 C104.471672,78.2463767 105.19876,76.5453353 105.951432,74.7847643 C105.499829,74.6069832 105.143556,74.4663746 104.732077,74.3044861 C104.577234,74.7222715 104.448513,75.070022 104.267549,75.5591893 C104.667986,75.2335267 104.926237,75.0236912 105.184219,74.8135864 C105.268238,74.8776953 105.351988,74.9418042 105.436007,75.0056438 C104.782166,76.6180639 104.128055,78.2302148 103.474484,79.8423656 Z M103.319641,78.2275211 C103.203037,78.1696076 103.086164,78.1116941 102.969561,78.0535112 C102.076589,80.0917978 101.183886,82.129815 100.215242,84.3407647 C100.808223,84.2912015 101.174999,84.2604938 101.316377,84.2486418 C101.316377,83.6953656 101.211084,83.2934727 101.333881,82.9815478 C101.963486,81.3842121 102.652066,79.8097724 103.319641,78.2275211 Z M93.1142806,73.2062841 L92.8980391,73.2173281 L92.8980391,84.7264957 C92.9702093,84.7243407 93.0421103,84.7221858 93.1142806,84.7197615 L93.1142806,73.2062841 Z M97.0133599,84.802726 C97.4342633,84.4611709 97.5554448,84.4105303 97.5597534,84.352078 C97.7331775,81.8968141 97.9009464,79.4410114 98.0501342,76.9841313 C98.0595594,76.826822 97.9351465,76.5377931 97.8382014,76.5216312 C97.5788732,76.4790715 97.0664104,76.5404868 97.0642561,76.5806222 C96.9961252,77.9554622 96.9419975,79.333804 96.960848,80.7102603 C96.9724275,81.5622625 97.1310405,82.4113016 97.1727808,83.2641119 C97.1929777,83.667621 97.0936089,84.0770561 97.0133599,84.802726 Z M86.0868357,83.5682252 C86.0744483,83.7874885 86.0623302,84.0067518 86.0499427,84.2262845 C87.9778044,84.397062 89.9053967,84.5675702 91.8733829,84.7421188 C91.8389135,83.9822396 91.8119843,83.385865 91.7794,82.6680067 C89.8763132,82.969157 87.9813052,83.2686911 86.0868357,83.5682252 Z M98.5712143,84.4406992 L98.8873631,84.5732269 C100.865313,81.6349911 100.04855,78.0852963 100.649879,74.7605214 C100.149266,75.0344658 99.6327635,75.4034962 99.5740578,75.8347499 C99.1849308,78.6959472 98.8940954,81.5703434 98.5712143,84.4406992 Z M94.1087761,84.7186841 C94.2353433,84.7286506 94.3619106,84.7383477 94.4884778,84.7483142 C94.5883852,83.8354355 95.0402572,82.7590521 94.7101052,82.0452343 C94.1497084,80.8341683 94.7402659,79.9902471 95.4032628,79.5371748 C96.3552102,78.8863884 96.2035988,78.1125022 96.2264886,77.2850122 C96.2491091,76.461024 96.2313358,75.635689 96.2313358,74.8111621 C95.3087413,75.2806656 94.2337276,75.832595 94.1906408,76.4556367 C94.0007899,79.1988521 94.1087761,81.9622698 94.1087761,84.7186841 Z M103.436783,84.9058929 C97.6782419,85.751969 92.055155,85.7465817 86.2818032,85.1194995 C86.3281214,85.7220695 86.3178883,86.2492172 86.4159106,86.7556238 C86.9919263,89.725106 87.6174916,92.684891 88.1776191,95.6570668 C88.5882894,97.8354233 89.2375525,98.853085 91.0797793,99.0031215 C93.2295376,99.1782089 95.4102644,98.9977342 97.5764495,98.932009 C99.8277309,98.8643984 100.601676,97.196489 101.048432,95.4135606 C101.913398,91.9638003 102.633754,88.477945 103.436783,84.9058929 Z M27.9205649,96.2558656 C28.4709979,96.5222678 28.878706,96.8533177 29.3227685,96.9131168 C32.2763635,97.3106998 35.2299585,97.8343458 38.1986339,97.9644492 C42.4757992,98.151658 46.7699299,98.156776 51.0500575,98.0237095 C56.1442548,97.8653228 61.2317199,97.4860566 66.3208007,97.1800577 C66.8173752,97.1498888 67.3042552,96.9613331 67.7957131,96.8463142 C67.9168945,96.6429434 68.0378067,96.4398421 68.1587188,96.2367407 C67.6696845,95.9431326 67.1572217,95.681579 66.6959245,95.349721 C65.6513407,94.5981921 64.3945548,93.9923897 63.6445765,93.0067824 C61.0933038,89.6545323 60.3258215,85.7646292 60.7558809,81.6112869 C60.8275125,80.9227895 60.8864875,80.2329451 60.9583885,79.4722578 L37.0229049,79.4722578 C36.9116873,81.4219232 36.8812573,83.2856611 36.6835969,85.1313516 C36.3292086,88.4415807 35.2929729,91.400827 32.234354,93.2769557 C30.8369976,94.1340758 29.5295848,95.1374613 27.9205649,96.2558656 Z M94.3287876,74.7370866 C96.9239549,73.7477082 97.734524,72.4288961 97.7913446,69.1329433 C97.9041779,62.585483 98.0067782,56.0369453 98.1837031,49.4908318 C98.3727461,42.4970333 98.7869172,35.5059285 98.827311,28.5121301 C98.8545095,23.7750734 98.3444704,19.0372086 98.1936669,14.2958421 C98.1115328,11.7042793 98.3075774,9.10490498 98.3043459,6.5090324 C98.3038073,5.97999911 98.1303832,5.25001938 97.7633382,4.96449225 C97.0020496,4.37215814 96.1031528,3.80191198 95.1789426,3.60312045 C92.4739041,3.02129158 89.7438215,2.362963 86.9965042,2.20646181 C78.7664012,1.7372276 70.5247186,1.43419173 62.2841131,1.18368208 C57.5798506,1.04011042 52.868048,1.06650821 48.1608233,1.12145872 C41.3956689,1.20038273 34.6315916,1.36415678 27.8675144,1.51338511 C24.7776577,1.58180387 21.6810686,1.59715769 18.6022528,1.82746495 C14.8130446,2.11137589 11.0162963,2.4550859 7.26990556,3.06250446 C5.82569239,3.2968522 4.14154003,3.97080397 3.90079296,5.86982874 C3.68212783,7.59430485 3.61103473,9.34033018 3.54263456,11.0796214 C3.35493801,15.8374192 3.14973748,20.5957557 3.05279235,25.3557085 C2.96796536,29.5157848 2.99274023,33.6788243 3.0207466,37.8402475 C3.05306164,42.6144766 3.18851553,47.3887056 3.19524784,52.1629347 C3.2030573,57.9674858 3.0005497,63.7752692 3.14435164,69.5755104 C3.19874863,71.7603316 3.89136774,73.9470385 4.44099277,76.0949567 C4.72482657,77.2031252 5.76887178,77.6526957 6.84092335,77.7413169 C7.64799157,77.8081195 8.47202518,77.6408437 9.28932649,77.6276448 C9.63967543,77.6217187 9.99083224,77.7836072 10.3444127,77.7978836 C17.1542695,78.0769459 23.9635878,78.5410622 30.7747912,78.573386 C43.5548524,78.6339932 56.3376065,78.5367524 69.1157827,78.3115631 C74.30127,78.2202482 79.4797558,77.6486553 84.6579722,77.2462236 C87.0546713,77.0598229 89.4422144,76.7559789 91.8809231,76.5003513 C92.1469836,74.7723735 91.3000602,72.9005546 93.3103252,71.4513697 C93.6870647,72.6667456 94.0096766,73.7073034 94.3287876,74.7370866 Z M98.4936582,78.2563432 C99.3548541,76.2536128 98.3759776,73.4559857 101.263865,72.6422334 C102.566431,73.9790929 101.255248,75.4199275 101.237744,76.8349029 C101.219432,78.3083307 100.824381,79.7769098 100.732821,81.2896649 C101.799756,79.0035623 102.843263,76.705877 103.957863,74.4432092 C104.135596,74.0825292 104.736386,73.5782775 104.961245,73.6569321 C105.688064,73.9117516 106.816128,74.0582863 106.441274,75.2833593 C106.052147,76.5558406 105.563382,77.8030015 105.037993,79.0272664 C104.531724,80.2068167 103.923932,81.3427298 103.329066,82.5624155 C104.279128,83.070169 104.312251,83.6110543 103.941167,84.6809729 C103.385348,86.2828879 103.381309,88.0765909 103.139484,89.8110335 C106.06992,89.9632248 109.034825,90.1170324 112,90.2708399 C111.98842,90.4631667 111.97711,90.6554934 111.965531,90.8478202 C109.014898,90.7179862 106.064265,90.5884215 103.012109,90.4540082 C102.770554,91.2755722 102.516343,92.2129631 102.219313,93.1368858 C101.649761,94.9060765 101.145108,96.7062443 100.414518,98.4078243 C100.211203,98.8821765 99.342736,99.1852124 98.7220178,99.3468315 C95.4226519,100.205568 92.1308261,100.414595 88.9933046,98.7466858 C88.5923288,98.5333485 88.1991624,98.0043152 88.1070646,97.5585158 C87.2536781,93.4251066 86.4681533,89.2776904 85.6589307,85.1351227 C85.6085731,84.8765321 85.5412501,84.6182108 85.4513065,84.3709336 C85.1453908,83.5307835 85.5967242,82.8051136 86.4342225,82.7116439 C88.2215137,82.5115055 90.0044962,82.2723092 91.9302035,82.0312273 C92.0166463,80.4697172 92.0993189,78.9785113 92.1863002,77.4132301 C82.0229497,78.1262398 72.0227901,78.8282055 61.8448978,79.5422927 C61.0284044,82.3450378 61.0978817,85.4055654 62.1486592,88.4170685 C62.2693021,88.7632028 63.0187418,89.083478 63.4797697,89.0880572 C68.5044898,89.1370817 73.5302869,89.0950607 78.5555455,89.1343881 C80.8353718,89.1524355 83.1146596,89.2930442 85.3939473,89.3908237 C85.5910691,89.3991741 85.7844208,89.5018022 85.9451881,89.8775667 L62.7184812,89.8775667 C63.1787013,92.3349855 65.1116795,93.5368931 66.9862213,94.8513954 C67.6408702,95.3103937 68.0709296,96.1330351 68.4786377,96.8597824 C68.5459607,96.9799193 67.9933735,97.7077441 67.6839569,97.7397986 C64.5378181,98.0670773 61.3868321,98.4172521 58.2285751,98.5446619 C54.6437596,98.6890416 51.0497882,98.5936863 47.4601254,98.6381316 C44.6444079,98.6731491 41.820881,98.9247362 39.0153966,98.7841275 C35.9099209,98.6284345 32.8184484,98.1581228 29.7272452,97.7707756 C29.1730422,97.7012794 28.6040281,97.444305 28.1257655,97.1412691 C27.3111571,96.6251653 27.3523588,95.7971367 28.1763924,95.2562513 C29.2207069,94.5712556 30.2771395,93.9037686 31.3400352,93.2481336 C33.8983094,91.6696535 35.3888408,89.3388363 35.7914324,86.419456 C36.100849,84.1745663 36.0965403,81.8863088 36.2543454,79.23791 C34.2691246,79.23791 32.510109,79.2651159 30.7524399,79.2327921 C25.7818476,79.1409385 20.8096396,79.0816782 15.8425481,78.8944694 C13.3518661,78.8001916 10.8727636,78.429545 8.3836974,78.2404506 C7.72662484,78.1903487 7.04639317,78.4451682 6.38932061,78.3942582 C4.78110861,78.2695421 3.91587331,77.2925544 3.40206412,75.6820198 C1.6252753,70.1115472 1.96673759,64.4125873 2.1625129,58.7028528 C2.331359,53.7753549 2.43315139,48.8430084 2.42372617,43.9130863 C2.41780174,40.930944 2.01655662,37.9493404 2.02275033,34.9682755 C2.03029051,31.4568306 2.3076613,27.9472712 2.4261498,24.4352875 C2.48781767,22.617611 2.41834033,20.7953553 2.47973891,18.9776789 C2.61303846,15.0190877 2.79157908,11.0621126 2.95234642,7.10432953 C2.98331501,6.34768263 2.7199474,5.33756308 3.10718934,4.8820665 C4.29018923,3.48998706 5.75621505,2.43245922 7.68246095,2.09844636 C12.8854523,1.19634225 18.1374548,0.934788623 23.397536,0.72549185 C29.4224066,0.486295539 35.4453922,0.182451575 41.4721478,0.0157145069 C44.2270053,-0.0605158492 46.9891337,0.164404106 49.7485691,0.182451575 C56.0349223,0.223664453 62.3239684,0.120497576 68.6076286,0.265685427 C74.6432709,0.405216609 80.682414,0.660844199 86.7018987,1.10987601 C89.6086369,1.32671501 92.4946396,2.01198012 95.3496737,2.66330521 C97.0427127,3.04930557 98.3913272,4.13727167 99.2048584,5.72437153 C99.3465061,6.00074024 99.1324189,6.45758364 99.088255,6.83173193 C99.0475919,7.17598067 98.9732673,7.52265371 98.9845776,7.86582499 C99.1547701,13.0082763 99.4070968,18.1493808 99.4943474,23.2934484 C99.5729807,27.9270688 99.5325868,32.5652685 99.4364496,37.1988889 C99.3319643,42.2131224 99.0640187,47.2241235 98.9369129,52.2380876 C98.794996,57.840076 98.7567565,63.4442193 98.6202254,69.0464771 C98.5677135,71.1978971 98.3310058,73.3439297 98.2550655,75.4953497 C98.2243662,76.3640525 98.3988674,77.2402976 98.4936582,78.2563432 Z" id="Stroke-3" stroke="#1D1D1B" stroke-width="1.5"></path>
                        <path d="M0,87.183187 C0.174473719,87.1191021 0.354541252,86.9915523 0.522888414,87.0004415 C6.89450882,87.3349237 13.2629328,87.7101308 19.6369505,88.0169117 C23.461521,88.2011043 27.2951481,88.2728381 31.1237142,88.4132048 C32.0837192,88.4485549 33.039995,88.5533648 34,88.7662922 C31.8535737,89.22543 29.6679907,88.8671744 27.5069139,88.8630399 C25.209721,88.8584919 22.9122617,88.7571963 20.6164007,88.6711984 C18.3232034,88.5852006 16.0257441,88.5163609 13.741337,88.3470526 C11.464122,88.177951 9.20848317,87.8223828 6.92993631,87.6795354 C4.65165582,87.5371014 2.35686026,87.556947 0.0692567435,87.5054724 C0.0460823717,87.397975 0.0231743719,87.2906844 0,87.183187" id="Fill-5" fill="#1D1D1B"></path>
                        <path d="M0,87.183187 C0.174473719,87.1191021 0.354541252,86.9915523 0.522888414,87.0004415 C6.89450882,87.3349237 13.2629328,87.7101308 19.6369505,88.0169117 C23.461521,88.2011043 27.2951481,88.2728381 31.1237142,88.4132048 C32.0837192,88.4485549 33.039995,88.5533648 34,88.7662922 C31.8535737,89.22543 29.6679907,88.8671744 27.5069139,88.8630399 C25.209721,88.8584919 22.9122617,88.7571963 20.6164007,88.6711984 C18.3232034,88.5852006 16.0257441,88.5163609 13.741337,88.3470526 C11.464122,88.177951 9.20848317,87.8223828 6.92993631,87.6795354 C4.65165582,87.5371014 2.35686026,87.556947 0.0692567435,87.5054724 C0.0460823717,87.397975 0.0231743719,87.2906844 0,87.183187 Z" id="Stroke-7" stroke="#1D1D1B" stroke-width="1.5"></path>
                        <path d="M92.982004,68.803243 C92.982004,64.3608524 92.9607904,59.9802288 92.9871061,55.5996052 C93.0230887,49.564163 93.1901127,43.5281836 93.1283515,37.4940841 C93.0429598,29.1845418 92.770136,20.8768793 92.6358723,12.5676055 C92.603112,10.533054 92.7926923,8.49474276 92.8931215,6.4588485 C92.9003717,6.30792216 93.0136903,6.16236686 93.0778683,6.0143946 C93.2309289,6.0205713 93.3839895,6.02647944 93.5367815,6.03238759 C93.5367815,6.98709068 93.5201329,7.94233088 93.5397354,8.89676542 C93.6648691,15.0127733 93.8053089,21.1287813 93.9221183,27.2450577 C93.9468228,28.534914 93.8874783,29.8258444 93.8780798,31.1167749 C93.8458565,35.5347272 93.7918825,39.9529481 93.7991328,44.371169 C93.8039663,47.3958725 93.9229239,50.4203074 93.9444061,53.4452794 C93.9828055,58.8498926 93.9873704,64.2547743 94,69.6593874 C94,69.9625828 93.9460172,70.2660468 93.8759316,71 C93.4293706,70.3957575 93.1954833,70.0796716 93.0955911,69.9443213 C91.582171,70.0498623 90.0853995,70.1943434 88.5854057,70.2510079 C82.3797387,70.4843798 76.1721919,70.8780773 69.9662564,70.8651868 C60.0879407,70.8450454 50.2088195,70.5947547 40.3323836,70.3519835 C32.6962714,70.1637284 25.0615017,69.8849712 17.4304915,69.5508923 C14.2723414,69.4128565 11.1252008,69.022113 7.97242119,68.752218 C7.1791914,68.6842743 6.70228683,68.4624502 6.65341485,67.4771322 C6.4957893,64.3138557 6.08789625,61.1599786 6.01673651,57.9969708 C5.94423412,54.7837436 6.12280481,51.5627285 6.25518879,48.34789 C6.36018299,45.8057749 6.6362291,43.2701049 6.70470358,40.7279898 C6.86179208,34.8773114 6.9729624,29.0247532 7.03660338,23.1724635 C7.0819845,18.9698901 6.99632428,14.7657053 7.02129732,10.5625947 C7.02881609,9.28213783 7.20980352,8.00275512 7.32795556,6.51524446 C7.94503141,6.51524446 8.63836902,6.53082049 9.33116959,6.51282749 C18.2666857,6.27972417 27.2005906,5.99398463 36.1371808,5.81593452 C50.3046838,5.5339547 64.4737979,5.31589031 78.6426436,5.08681528 C82.5730784,5.02343696 86.5045873,4.9984616 90.4358277,5 C91.2255666,5 92.0153056,5.20014431 92.805313,5.3081023 C92.7953775,5.4727248 92.7857106,5.6373473 92.7755065,5.80170125 C92.3737896,5.86857075 91.9718042,5.99344752 91.5700872,5.99344752 C85.6208638,5.99344752 79.6713718,5.9300692 73.7221484,5.97626018 C66.7068714,6.03077628 59.6910573,6.12745507 52.6779285,6.29825428 C47.0146867,6.43602156 41.3560099,6.75721 35.6930366,6.91028475 C31.0993392,7.03435587 26.502151,7.050469 21.9063054,7.07651857 C17.3174415,7.10283668 12.7280406,7.08242672 8.04089567,7.08242672 C7.93724411,11.2500884 7.79599873,15.0619184 7.75867342,18.8745541 C7.70362532,24.5009913 7.8075454,30.1298455 7.68402282,35.7544029 C7.57795452,40.5765263 7.11017987,45.3922045 7.05620588,50.2135222 C7.00411157,54.8535672 7.27102776,59.4973719 7.41227314,64.1390283 C7.44879286,65.3397252 7.53955511,66.5388108 7.61393718,67.8979535 C13.851559,67.9095012 20.0389662,69.2589761 26.3899065,68.6182105 C26.6283588,68.6963592 27.0284646,68.9278512 27.4377003,68.9458442 C30.3850565,69.076092 33.3332182,69.1990889 36.2824541,69.2562905 C44.1441293,69.4088282 52.0068787,69.5081925 59.8688224,69.6661012 C65.367994,69.7764762 70.8677027,70.1003501 76.364189,70.0479824 C81.1372626,70.00206 85.907114,69.5782846 90.6756226,69.2788489 C91.4626763,69.2297039 92.2360351,68.962763 92.982004,68.803243" id="Fill-9" fill="#1D1D1B"></path>
                        <path d="M92.982004,68.803243 C92.982004,64.3608524 92.9607904,59.9802288 92.9871061,55.5996052 C93.0230887,49.564163 93.1901127,43.5281836 93.1283515,37.4940841 C93.0429598,29.1845418 92.770136,20.8768793 92.6358723,12.5676055 C92.603112,10.533054 92.7926923,8.49474276 92.8931215,6.4588485 C92.9003717,6.30792216 93.0136903,6.16236686 93.0778683,6.0143946 C93.2309289,6.0205713 93.3839895,6.02647944 93.5367815,6.03238759 C93.5367815,6.98709068 93.5201329,7.94233088 93.5397354,8.89676542 C93.6648691,15.0127733 93.8053089,21.1287813 93.9221183,27.2450577 C93.9468228,28.534914 93.8874783,29.8258444 93.8780798,31.1167749 C93.8458565,35.5347272 93.7918825,39.9529481 93.7991328,44.371169 C93.8039663,47.3958725 93.9229239,50.4203074 93.9444061,53.4452794 C93.9828055,58.8498926 93.9873704,64.2547743 94,69.6593874 C94,69.9625828 93.9460172,70.2660468 93.8759316,71 C93.4293706,70.3957575 93.1954833,70.0796716 93.0955911,69.9443213 C91.582171,70.0498623 90.0853995,70.1943434 88.5854057,70.2510079 C82.3797387,70.4843798 76.1721919,70.8780773 69.9662564,70.8651868 C60.0879407,70.8450454 50.2088195,70.5947547 40.3323836,70.3519835 C32.6962714,70.1637284 25.0615017,69.8849712 17.4304915,69.5508923 C14.2723414,69.4128565 11.1252008,69.022113 7.97242119,68.752218 C7.1791914,68.6842743 6.70228683,68.4624502 6.65341485,67.4771322 C6.4957893,64.3138557 6.08789625,61.1599786 6.01673651,57.9969708 C5.94423412,54.7837436 6.12280481,51.5627285 6.25518879,48.34789 C6.36018299,45.8057749 6.6362291,43.2701049 6.70470358,40.7279898 C6.86179208,34.8773114 6.9729624,29.0247532 7.03660338,23.1724635 C7.0819845,18.9698901 6.99632428,14.7657053 7.02129732,10.5625947 C7.02881609,9.28213783 7.20980352,8.00275512 7.32795556,6.51524446 C7.94503141,6.51524446 8.63836902,6.53082049 9.33116959,6.51282749 C18.2666857,6.27972417 27.2005906,5.99398463 36.1371808,5.81593452 C50.3046838,5.5339547 64.4737979,5.31589031 78.6426436,5.08681528 C82.5730784,5.02343696 86.5045873,4.9984616 90.4358277,5 C91.2255666,5 92.0153056,5.20014431 92.805313,5.3081023 C92.7953775,5.4727248 92.7857106,5.6373473 92.7755065,5.80170125 C92.3737896,5.86857075 91.9718042,5.99344752 91.5700872,5.99344752 C85.6208638,5.99344752 79.6713718,5.9300692 73.7221484,5.97626018 C66.7068714,6.03077628 59.6910573,6.12745507 52.6779285,6.29825428 C47.0146867,6.43602156 41.3560099,6.75721 35.6930366,6.91028475 C31.0993392,7.03435587 26.502151,7.050469 21.9063054,7.07651857 C17.3174415,7.10283668 12.7280406,7.08242672 8.04089567,7.08242672 C7.93724411,11.2500884 7.79599873,15.0619184 7.75867342,18.8745541 C7.70362532,24.5009913 7.8075454,30.1298455 7.68402282,35.7544029 C7.57795452,40.5765263 7.11017987,45.3922045 7.05620588,50.2135222 C7.00411157,54.8535672 7.27102776,59.4973719 7.41227314,64.1390283 C7.44879286,65.3397252 7.53955511,66.5388108 7.61393718,67.8979535 C13.851559,67.9095012 20.0389662,69.2589761 26.3899065,68.6182105 C26.6283588,68.6963592 27.0284646,68.9278512 27.4377003,68.9458442 C30.3850565,69.076092 33.3332182,69.1990889 36.2824541,69.2562905 C44.1441293,69.4088282 52.0068787,69.5081925 59.8688224,69.6661012 C65.367994,69.7764762 70.8677027,70.1003501 76.364189,70.0479824 C81.1372626,70.00206 85.907114,69.5782846 90.6756226,69.2788489 C91.4626763,69.2297039 92.2360351,68.962763 92.982004,68.803243 Z" id="Stroke-11" stroke="#1D1D1B" stroke-width="1.5"></path>
                        <path d="M45.0750315,72.7456579 C45.1511032,73.8711325 45.0181274,74.631406 45.2930639,75.135043 C45.52667,75.5628775 46.2125137,75.8089145 46.7360311,75.9094492 C47.0019827,75.9605195 47.6333183,75.4681244 47.6099577,75.3001383 C47.5383783,74.7903985 47.3257368,74.2099954 46.9855105,73.8618178 C46.588979,73.4555035 46.0001717,73.2650336 45.0750315,72.7456579 M46.5392628,76.9989497 C45.2885714,76.9475581 43.7479688,75.3964974 44.0348851,74.1740214 C44.2304554,73.3421209 44.9151011,72.2368818 45.5868685,72.0322792 C46.6539694,71.7081914 48.9867365,73.9087126 48.9999142,74.8633103 C49.0127925,75.7912487 47.5725208,77.0413477 46.5392628,76.9989497" id="Fill-13" fill="#1D1D1B"></path>
                        <path d="M45.0750315,72.7456579 C45.1511032,73.8711325 45.0181274,74.631406 45.2930639,75.135043 C45.52667,75.5628775 46.2125137,75.8089145 46.7360311,75.9094492 C47.0019827,75.9605195 47.6333183,75.4681244 47.6099577,75.3001383 C47.5383783,74.7903985 47.3257368,74.2099954 46.9855105,73.8618178 C46.588979,73.4555035 46.0001717,73.2650336 45.0750315,72.7456579 Z M46.5392628,76.9989497 C45.2885714,76.9475581 43.7479688,75.3964974 44.0348851,74.1740214 C44.2304554,73.3421209 44.9151011,72.2368818 45.5868685,72.0322792 C46.6539694,71.7081914 48.9867365,73.9087126 48.9999142,74.8633103 C49.0127925,75.7912487 47.5725208,77.0413477 46.5392628,76.9989497 Z" id="Stroke-15" stroke="#1D1D1B" stroke-width="1.5"></path>
                    </g>
                </g>
            </g>
        </g>
    </g>
</svg>