<?xml version="1.0" encoding="utf-8"?>
<!-- Generator: Adobe Illustrator 22.0.1, SVG Export Plug-In . SVG Version: 6.00 Build 0)  -->
<svg version="1.1" id="Calque_1" xmlns="http://www.w3.org/2000/svg" xmlns:xlink="http://www.w3.org/1999/xlink" x="0px" y="0px"
	 viewBox="0 0 27 27" style="enable-background:new 0 0 27 27;" xml:space="preserve">
<g id="Clip-2">
</g>
<path d="M16.6,0C10.9,0,6.3,4.6,6.3,10.3c0,2.2,0.7,4.3,1.9,6C8.1,16.3,8,16.4,8,16.5l-7.4,7.3c-0.7,0.7-0.7,1.9,0,2.6
	c0.7,0.7,1.9,0.7,2.6,0l7.4-7.4c0.1-0.1,0.1-0.1,0.2-0.2c1.7,1.1,3.7,1.8,5.8,1.8C22.4,20.7,27,16,27,10.3S22.4,0,16.6,0z
	 M16.6,17.7c-4.1,0-7.4-3.3-7.4-7.4s3.3-7.4,7.4-7.4S24,6.3,24,10.3S20.7,17.7,16.6,17.7z"/>
</svg>
