<?xml version="1.0" encoding="UTF-8"?>
<svg width="594px" height="27px" viewBox="0 0 594 27" version="1.1" xmlns="http://www.w3.org/2000/svg" xmlns:xlink="http://www.w3.org/1999/xlink">
    <title>HABILLAGE / séparateur Copy 2</title>
    <defs>
        <path d="M23.178,0.461 C22.748,0.466 22.324,0.655 22.033,1.015 L22.033,1.015 C21.509,1.656 21.607,2.602 22.248,3.124 L22.248,3.124 L33.436,12.232 L26.672,12.232 L25.146,10.989 C24.505,10.466 23.559,10.562 23.037,11.206 L23.037,11.206 C22.792,11.505 22.689,11.872 22.707,12.232 L22.707,12.232 L16.493,12.232 L2.448,0.798 C2.173,0.575 1.842,0.464 1.512,0.461 L1.512,0.461 L1.483,0.461 C1.053,0.466 0.629,0.655 0.337,1.015 L0.337,1.015 C-0.186,1.656 -0.089,2.602 0.553,3.124 L0.553,3.124 L11.741,12.232 L1.5,12.232 C0.672,12.232 -0.001,12.902 -0.001,13.731 L-0.001,13.731 C-0.001,14.559 0.672,15.231 1.5,15.231 L1.5,15.231 L11.741,15.231 L0.553,24.337 C-0.089,24.86 -0.186,25.805 0.337,26.447 L0.337,26.447 C0.633,26.812 1.066,27 1.501,27 L1.501,27 C1.834,27 2.169,26.891 2.448,26.663 L2.448,26.663 L16.493,15.231 L22.707,15.231 C22.689,15.589 22.792,15.955 23.037,16.255 L23.037,16.255 C23.332,16.62 23.765,16.809 24.201,16.809 L24.201,16.809 C24.534,16.809 24.869,16.698 25.146,16.472 L25.146,16.472 L26.672,15.231 L33.436,15.231 L22.248,24.337 C21.607,24.86 21.509,25.805 22.033,26.447 L22.033,26.447 C22.329,26.812 22.76,27 23.197,27 L23.197,27 C23.53,27 23.865,26.891 24.144,26.663 L24.144,26.663 L38.188,15.231 L211.565,15.231 L211.565,12.232 L38.188,12.232 L24.144,0.798 C23.868,0.575 23.536,0.464 23.207,0.461 L23.207,0.461 L23.178,0.461 Z" id="path-1"></path>
        <path d="M2.671,0.759 L0.733,2.337 C0.091,2.86 -0.007,3.804 0.518,4.447 L0.518,4.447 C0.813,4.812 1.245,5 1.682,5 L1.682,5 C2.014,5 2.349,4.89 2.628,4.663 L2.628,4.663 L4.566,3.084 C5.208,2.563 5.306,1.617 4.781,0.976 L4.781,0.976 C4.486,0.61 4.055,0.421 3.619,0.421 L3.619,0.421 C3.286,0.421 2.95,0.532 2.671,0.759 L2.671,0.759 Z" id="path-3"></path>
        <path d="M4.727,1.016 L1.199,3.888 C0.557,4.411 0.459,5.355 0.983,5.998 L0.983,5.998 C1.279,6.362 1.712,6.551 2.147,6.551 L2.147,6.551 C2.48,6.551 2.815,6.44 3.094,6.213 L3.094,6.213 L6.62,3.342 C7.264,2.82 7.359,1.875 6.837,1.232 L6.837,1.232 C6.541,0.867 6.109,0.679 5.673,0.679 L5.673,0.679 C5.34,0.679 5.004,0.79 4.727,1.016 L4.727,1.016 Z" id="path-5"></path>
        <path d="M0.983,1.464 C0.46,2.105 0.556,3.051 1.199,3.573 L1.199,3.573 L4.726,6.444 C5.005,6.672 5.34,6.781 5.673,6.781 L5.673,6.781 C6.107,6.781 6.541,6.594 6.837,6.228 L6.837,6.228 C7.359,5.586 7.263,4.641 6.621,4.118 L6.621,4.118 L3.094,1.247 C2.815,1.02 2.48,0.91 2.146,0.91 L2.146,0.91 C1.711,0.91 1.279,1.098 0.983,1.464 L0.983,1.464 Z" id="path-7"></path>
        <path d="M0.517,1.015 C-0.006,1.656 0.089,2.602 0.733,3.124 L0.733,3.124 L2.671,4.702 C2.951,4.93 3.285,5.039 3.618,5.039 L3.618,5.039 C4.053,5.039 4.486,4.852 4.782,4.486 L4.782,4.486 C5.305,3.844 5.209,2.898 4.566,2.376 L4.566,2.376 L2.628,0.798 C2.35,0.571 2.014,0.46 1.682,0.46 L1.682,0.46 C1.246,0.46 0.813,0.649 0.517,1.015 L0.517,1.015 Z" id="path-9"></path>
        <path d="M209.451,0.798 L195.405,12.231 L189.192,12.231 C189.211,11.872 189.106,11.505 188.861,11.206 L188.861,11.206 C188.566,10.842 188.133,10.652 187.697,10.652 L187.697,10.652 C187.364,10.652 187.029,10.764 186.753,10.989 L186.753,10.989 L185.226,12.231 L178.463,12.231 L189.651,3.124 C190.293,2.602 190.39,1.656 189.866,1.015 L189.866,1.015 C189.57,0.649 189.138,0.46 188.702,0.46 L188.702,0.46 C188.369,0.46 188.034,0.571 187.756,0.798 L187.756,0.798 L173.711,12.231 L0.334,12.231 L0.334,15.23 L173.711,15.23 L187.756,26.663 C188.399,27.185 189.345,27.09 189.866,26.447 L189.866,26.447 C190.39,25.805 190.293,24.859 189.651,24.337 L189.651,24.337 L178.463,15.23 L185.226,15.23 L186.753,16.472 C187.393,16.995 188.339,16.899 188.861,16.255 L188.861,16.255 C189.106,15.955 189.211,15.589 189.192,15.23 L189.192,15.23 L195.405,15.23 L209.451,26.663 C210.093,27.185 211.04,27.09 211.561,26.447 L211.561,26.447 C212.085,25.805 211.987,24.859 211.345,24.337 L211.345,24.337 L200.158,15.23 L210.398,15.23 C211.226,15.23 211.899,14.559 211.899,13.73 L211.899,13.73 C211.899,12.902 211.226,12.231 210.398,12.231 L210.398,12.231 L200.158,12.231 L211.345,3.124 C211.987,2.602 212.085,1.656 211.561,1.015 L211.561,1.015 C211.265,0.649 210.833,0.46 210.397,0.46 L210.397,0.46 C210.065,0.46 209.73,0.571 209.451,0.798 L209.451,0.798 Z" id="path-11"></path>
        <path d="M3.272,0.799 L1.332,2.376 C0.69,2.898 0.593,3.844 1.117,4.486 L1.117,4.486 C1.64,5.13 2.584,5.225 3.228,4.702 L3.228,4.702 L5.165,3.124 C5.809,2.602 5.905,1.656 5.38,1.015 L5.38,1.015 C5.085,0.649 4.653,0.46 4.218,0.46 L4.218,0.46 C3.885,0.46 3.55,0.571 3.272,0.799 L3.272,0.799 Z" id="path-13"></path>
        <path d="M4.806,1.247 L1.278,4.118 C0.635,4.641 0.539,5.585 1.062,6.228 L1.062,6.228 C1.584,6.872 2.531,6.968 3.172,6.445 L3.172,6.445 L6.701,3.574 C7.343,3.05 7.439,2.105 6.916,1.463 L6.916,1.463 C6.62,1.098 6.187,0.911 5.751,0.911 L5.751,0.911 C5.418,0.911 5.083,1.02 4.806,1.247 L4.806,1.247 Z" id="path-15"></path>
        <path d="M1.062,1.233 C0.539,1.874 0.635,2.821 1.278,3.342 L1.278,3.342 L4.804,6.213 C5.449,6.737 6.393,6.641 6.916,5.997 L6.916,5.997 C7.439,5.357 7.343,4.41 6.701,3.888 L6.701,3.888 L3.172,1.016 C2.894,0.79 2.559,0.679 2.226,0.679 L2.226,0.679 C1.791,0.679 1.358,0.868 1.062,1.233 L1.062,1.233 Z" id="path-17"></path>
        <path d="M1.117,0.976 C0.902,1.238 0.791,1.553 0.78,1.868 L0.78,1.868 L0.78,1.975 C0.795,2.392 0.983,2.801 1.333,3.084 L1.333,3.084 L3.271,4.663 C3.542,4.883 3.866,4.993 4.19,5 L4.19,5 L4.245,5 C4.671,4.992 5.091,4.803 5.382,4.447 L5.382,4.447 C5.603,4.177 5.712,3.853 5.719,3.529 L5.719,3.529 L5.719,3.472 C5.711,3.046 5.523,2.626 5.166,2.337 L5.166,2.337 L3.228,0.759 C2.949,0.532 2.614,0.421 2.281,0.421 L2.281,0.421 C1.845,0.421 1.413,0.61 1.117,0.976 L1.117,0.976 Z" id="path-19"></path>
    </defs>
    <g id="SYMBOLES" stroke="none" stroke-width="1" fill="none" fill-rule="evenodd">
        <g id="CONTENT-/-FULLSCREEN-/-mail-to" transform="translate(-423.000000, -1.000000)">
            <g id="Group-37" transform="translate(423.000000, 0.000000)">
                <polygon id="Fill-1" fill="#F5AB87" points="220.85 15.769 224.133 15.769 224.133 12.769 220.85 12.769"></polygon>
                <polygon id="Fill-2" fill="#F5AB87" points="214.566 15.769 217.851 15.769 217.851 12.769 214.566 12.769"></polygon>
                <polygon id="Fill-3" fill="#F5AB87" points="240.3922 12.7696 227.1342 12.7696 227.1342 15.7706 240.3922 15.7706 234.9152 26.0386 255.3012 14.2686 234.9152 2.4996"></polygon>
                <g id="Group-6" transform="translate(0.000000, 0.539000)">
                    <mask id="mask-2" fill="white">
                        <use xlink:href="#path-1"></use>
                    </mask>
                    <g id="Clip-5"></g>
                    <polygon id="Fill-4" fill="#F5AB87" mask="url(#mask-2)" points="-5 32 216.565 32 216.565 -4.538 -5 -4.538"></polygon>
                </g>
                <g id="Group-9" transform="translate(10.000000, 22.539000)">
                    <mask id="mask-4" fill="white">
                        <use xlink:href="#path-3"></use>
                    </mask>
                    <g id="Clip-8"></g>
                    <polygon id="Fill-7" fill="#F5AB87" mask="url(#mask-4)" points="-4.82 10 10.119 10 10.119 -4.578 -4.82 -4.578"></polygon>
                </g>
                <g id="Group-12" transform="translate(15.000000, 16.539000)">
                    <mask id="mask-6" fill="white">
                        <use xlink:href="#path-5"></use>
                    </mask>
                    <g id="Clip-11"></g>
                    <polygon id="Fill-10" fill="#F5AB87" mask="url(#mask-6)" points="-4.355 11.55 12.173 11.55 12.173 -4.321 -4.355 -4.321"></polygon>
                </g>
                <g id="Group-15" transform="translate(15.000000, 4.539000)">
                    <mask id="mask-8" fill="white">
                        <use xlink:href="#path-7"></use>
                    </mask>
                    <g id="Clip-14"></g>
                    <polygon id="Fill-13" fill="#F5AB87" mask="url(#mask-8)" points="-4.355 11.781 12.173 11.781 12.173 -4.09 -4.355 -4.09"></polygon>
                </g>
                <g id="Group-18" transform="translate(10.000000, 0.539000)">
                    <mask id="mask-10" fill="white">
                        <use xlink:href="#path-9"></use>
                    </mask>
                    <g id="Clip-17"></g>
                    <polygon id="Fill-16" fill="#F5AB87" mask="url(#mask-10)" points="-4.82 10.039 10.119 10.039 10.119 -4.539 -4.82 -4.539"></polygon>
                </g>
                <polygon id="Fill-19" fill="#F5AB87" points="369.764 15.77 373.048 15.77 373.048 12.77 369.764 12.77"></polygon>
                <polygon id="Fill-20" fill="#F5AB87" points="376.049 15.77 379.334 15.77 379.334 12.77 376.049 12.77"></polygon>
                <polygon id="Fill-21" fill="#F5AB87" points="338.5975 14.2699 358.9825 26.0379 353.5065 15.7699 366.7645 15.7699 366.7645 12.7699 353.5065 12.7699 358.9825 2.4999"></polygon>
                <g id="Group-24" transform="translate(382.000000, 0.539000)">
                    <mask id="mask-12" fill="white">
                        <use xlink:href="#path-11"></use>
                    </mask>
                    <g id="Clip-23"></g>
                    <polygon id="Fill-22" fill="#F5AB87" mask="url(#mask-12)" points="-4.666 32 216.898 32 216.898 -4.539 -4.666 -4.539"></polygon>
                </g>
                <g id="Group-27" transform="translate(578.000000, 0.539000)">
                    <mask id="mask-14" fill="white">
                        <use xlink:href="#path-13"></use>
                    </mask>
                    <g id="Clip-26"></g>
                    <polygon id="Fill-25" fill="#F5AB87" mask="url(#mask-14)" points="-4.219 10.04 10.719 10.04 10.719 -4.539 -4.219 -4.539"></polygon>
                </g>
                <g id="Group-30" transform="translate(571.000000, 4.539000)">
                    <mask id="mask-16" fill="white">
                        <use xlink:href="#path-15"></use>
                    </mask>
                    <g id="Clip-29"></g>
                    <polygon id="Fill-28" fill="#F5AB87" mask="url(#mask-16)" points="-4.274 11.782 12.253 11.782 12.253 -4.089 -4.274 -4.089"></polygon>
                </g>
                <g id="Group-33" transform="translate(571.000000, 16.539000)">
                    <mask id="mask-18" fill="white">
                        <use xlink:href="#path-17"></use>
                    </mask>
                    <g id="Clip-32"></g>
                    <polygon id="Fill-31" fill="#F5AB87" mask="url(#mask-18)" points="-4.274 11.551 12.253 11.551 12.253 -4.321 -4.274 -4.321"></polygon>
                </g>
                <g id="Group-36" transform="translate(578.000000, 22.539000)">
                    <mask id="mask-20" fill="white">
                        <use xlink:href="#path-19"></use>
                    </mask>
                    <g id="Clip-35"></g>
                    <polygon id="Fill-34" fill="#F5AB87" mask="url(#mask-20)" points="-4.219 10 10.719 10 10.719 -4.578 -4.219 -4.578"></polygon>
                </g>
            </g>
        </g>
    </g>
</svg>