<?xml version="1.0" encoding="UTF-8"?>
<svg width="50px" height="9px" viewBox="0 0 50 9" version="1.1" xmlns="http://www.w3.org/2000/svg" xmlns:xlink="http://www.w3.org/1999/xlink">
    <!-- Generator: Sketch 63.1 (92452) - https://sketch.com -->
    <title>Group 7</title>
    <desc>Created with Sketch.</desc>
    <g id="Symbols" stroke="none" stroke-width="1" fill="none" fill-rule="evenodd">
        <g id="NAV/-HABILLAGE--/-Séparateur" transform="translate(-191.000000, -6.000000)" fill="#FFCF00">
            <g id="Group-7" transform="translate(216.000000, 10.500000) scale(-1, -1) translate(-216.000000, -10.500000) translate(191.000000, 6.000000)">
                <path d="M3.790091,0.128077278 C2.80031504,0.366397463 1.99510349,1.10648421 1.34209111,1.88824141 C0.638192864,2.73094397 0.105839588,3.75230636 0.0131447913,4.84686742 C-0.0795500052,5.94142847 0.318735055,7.10781142 1.18487212,7.78220293 C1.89365265,8.33408419 2.83059442,8.51044939 3.72845492,8.49952695 C5.50434877,8.47798039 7.40007655,7.63337328 8.1016368,6.0000333 C8.55557541,4.94319595 8.44692721,3.71529399 8.07422261,2.62706611 C7.60013595,1.24269339 6.34708292,-0.487594672 3.790091,0.128077278" id="Fill-1"></path>
                <path d="M20.4886505,5.8892252 C20.5711309,6.49431849 20.7354273,7.11148061 21.1354115,7.57245928 C21.7656535,8.29883739 22.8081143,8.50956001 23.7689424,8.49967091 C24.8010703,8.48907054 25.8450661,8.26760988 26.7382603,7.74956815 C27.6314545,7.23154937 28.3629412,6.40026884 28.6542803,5.40862895 C28.8886622,4.61089333 28.8307426,3.73989581 28.5491178,2.95762481 C28.3371661,2.36891392 27.9974613,1.82141141 27.5343796,1.40118223 C26.932685,0.855194062 26.1422935,0.542941876 25.337193,0.437511734 C24.261488,0.296678174 23.2256943,0.565289853 22.2438795,1.02741575 C21.0983182,1.56661234 20.0902242,2.96622901 20.4886505,5.8892252" id="Fill-3"></path>
                <path d="M42.5158278,0.961849167 C41.6860236,1.42884248 40.596444,2.4063958 40.5050437,4.1011627 C40.4136433,5.79595265 41.5750538,7.43147808 43.1363121,8.06603023 C44.6975475,8.70060543 46.5515245,8.39513155 47.9510833,7.45206276 C48.2782087,7.23162458 48.5876164,6.97483473 48.8153627,6.65133485 C49.1682073,6.15015667 49.3018557,5.51876253 49.3000004,4.90410352 C49.2952258,3.32613682 48.3864122,1.78306956 47.0145844,1.02362626 C45.6427338,0.264182958 43.4988728,0.408621485 42.5158278,0.961849167" id="Fill-5"></path>
            </g>
        </g>
    </g>
</svg>