<?xml version="1.0" encoding="utf-8"?>
<!-- Generator: Adobe Illustrator 22.0.1, SVG Export Plug-In . SVG Version: 6.00 Build 0)  -->
<svg version="1.1" id="Calque_1" xmlns="http://www.w3.org/2000/svg" xmlns:xlink="http://www.w3.org/1999/xlink" x="0px" y="0px"
	 viewBox="0 0 512 512" style="enable-background:new 0 0 512 512;" xml:space="preserve">
<style type="text/css">
	.st0{filter:url(#Adobe_OpacityMaskFilter);}
	.st1{fill:#FFFFFF;}
	.st2{mask:url(#mask-2_1_);fill:#1D1D1B;}
	.st3{filter:url(#Adobe_OpacityMaskFilter_1_);}
	.st4{mask:url(#mask-4_1_);fill:#1D1D1B;}
</style>
<title>NAV/ PREVIOUS</title>
<desc>Created with Sketch.</desc>
<g id="Clip-2">
</g>
<defs>
	<filter id="Adobe_OpacityMaskFilter" filterUnits="userSpaceOnUse" x="195.3" y="41.8" width="317" height="427.9">
		<feColorMatrix  type="matrix" values="1 0 0 0 0  0 1 0 0 0  0 0 1 0 0  0 0 0 1 0"/>
	</filter>
</defs>

<path id="Fill-1" class="st2" d="M296.9,266.7c13.5,10.6,25.6,21,38.6,30c17.4,12,34.1,24.8,49.5,39.4c7.9,7.5,16.7,14,25.1,20.8
	c21.3,17.5,42.6,35.1,64.1,52.2c4.9,3.9,10.9,7,16.9,9.1c13.6,4.6,21.8,16.7,19.4,30c-2.6,14.3-14.3,21.4-29.2,21.7
	c-21.3,0.5-35.3-11.9-49.8-24.8c-9-8-19.2-14.7-28.6-22.4c-8.4-6.9-16.3-14.5-24.6-21.4c-24.1-20-48.4-39.8-72.6-59.7
	c-9.4-7.7-19.4-14.6-28-23c-8.5-8.2-18.2-10.1-29.1-9.7c-8.7,0.4-17.4,0.6-26.1,0.5c-15.4-0.1-27-11.7-26.9-26.6
	c0-14.9,11.6-27.1,27-26.3c11.2,0.6,17.6-6.6,24.8-12.6c10.2-8.4,19.5-17.7,29.6-26.1c24-19.9,48.5-39.1,72.3-59.1
	c24-20.2,47.3-41.2,71-61.8c9.3-8.1,18.8-15.9,27.7-24.4c6-5.8,10.9-12.8,16.7-18.8c9.4-9.7,21.3-12.9,34.2-11.3
	c12.6,1.6,17.2,12.1,10.7,23.4c-1.1,2-2.6,4-4.3,5.4c-10.5,8.2-16,20.4-23.9,30.6c-8.8,11.2-19,21.2-29.4,30.9
	c-23.9,22.5-48.1,44.8-72.5,66.8c-15.8,14.3-32,28.3-48.3,42c-7.7,6.4-16.3,11.7-24.4,17.6C303.6,261.1,300.7,263.6,296.9,266.7"/>
<g id="Clip-2_1_">
</g>
<defs>
	<filter id="Adobe_OpacityMaskFilter_1_" filterUnits="userSpaceOnUse" x="0.3" y="41.8" width="317" height="427.9">
		<feColorMatrix  type="matrix" values="1 0 0 0 0  0 1 0 0 0  0 0 1 0 0  0 0 0 1 0"/>
	</filter>
</defs>

<path id="Fill-1_1_" class="st4" d="M101.8,266.7c13.5,10.6,25.6,21,38.6,30c17.4,12,34.1,24.8,49.5,39.4c7.9,7.5,16.7,14,25.1,20.8
	c21.3,17.5,42.6,35.1,64.1,52.2c4.9,3.9,10.9,7,16.9,9.1c13.6,4.6,21.8,16.7,19.4,30c-2.6,14.3-14.3,21.4-29.2,21.7
	c-21.3,0.5-35.3-11.9-49.8-24.8c-9-8-19.2-14.7-28.6-22.4c-8.4-6.9-16.3-14.5-24.6-21.4c-24.1-20-48.4-39.8-72.6-59.7
	c-9.4-7.7-19.4-14.6-28-23c-8.5-8.2-18.2-10.1-29.1-9.7c-8.7,0.4-17.4,0.6-26.1,0.5c-15.4-0.1-27-11.7-26.9-26.6
	c0-14.9,11.6-27.1,27-26.3c11.2,0.6,17.6-6.6,24.8-12.6c10.2-8.4,19.5-17.7,29.6-26.1c24-19.9,48.5-39.1,72.3-59.1
	c24-20.2,47.3-41.2,71-61.8c9.3-8.1,18.8-15.9,27.7-24.4c6-5.8,10.9-12.8,16.7-18.8c9.4-9.7,21.3-12.9,34.2-11.3
	c12.6,1.6,17.2,12.1,10.7,23.4c-1.1,2-2.6,4-4.3,5.4c-10.5,8.2-16,20.4-23.9,30.6c-8.8,11.2-19,21.2-29.4,30.9
	c-23.9,22.5-48.1,44.8-72.5,66.8c-15.8,14.3-32,28.3-48.3,42c-7.7,6.4-16.3,11.7-24.4,17.6C108.5,261.1,105.7,263.6,101.8,266.7"/>
</svg>
