<?xml version="1.0" encoding="utf-8"?>
<!-- Generator: Adobe Illustrator 22.0.1, SVG Export Plug-In . SVG Version: 6.00 Build 0)  -->
<svg version="1.1" id="Calque_1" xmlns="http://www.w3.org/2000/svg" xmlns:xlink="http://www.w3.org/1999/xlink" x="0px" y="0px"
	 viewBox="0 0 512 512" style="enable-background:new 0 0 512 512;" xml:space="preserve">
<style type="text/css">
	.st0{fill:#1D1D1B;}
</style>
<title>NAV/ PREVIOUS Copy 2</title>
<desc>Created with Sketch.</desc>
<path id="Fill-1" class="st0" d="M218.1,512c4.9-0.2,8.9-2.3,11.6-6.9c2.1-3.5,3.7-7.4,5.8-10.9c3.5-5.8,7.2-11.5,10.9-17.2
	c3.7-5.8,7.5-11.5,11.3-17.3c3.1-4.7,6.3-9.5,9.5-14.1c3.7-5.4,7.5-10.7,11.3-16c5.2-7.3,10.5-14.4,15.6-21.7
	c6.9-9.7,13.7-19.5,20.6-29.1c4.2-5.9,8.6-11.6,13-17.3c6.7-8.6,13.3-17.1,20.2-25.5c3.3-4,7.2-7.5,10.4-11.5
	c4.1-5,7.7-10.6,11.7-15.7c3.3-4.2,6.7-8.3,10.4-11.9c6.7-6.6,5.7-19.8-2.6-23.3c-5.1-2.1-8-6.1-10.9-10.4
	c-8.4-12.5-16.8-24.9-25.1-37.5c-11.3-17.2-22.6-34.3-33.5-51.7c-8-12.7-15.2-25.9-23-38.7c-9.3-15.2-18.6-30.3-28.3-45.3
	c-7.6-11.7-15.8-23-23.4-34.6c-6.2-9.5-12.3-19.2-18-29.1c-2.1-3.7-3.3-8-4.5-12.3c-1.8-6.4-5.1-11-10.6-13.4
	c-1.5-0.6-3.7-0.7-4.8,0.2c-0.7,0.6-0.7,3.6,0,5c2,4.5,2.6,9.2,2.8,14.1c0.3,7.6,2.9,14.3,6.2,20.7c6.2,12,12.1,24.2,18.7,35.9
	c4.5,7.9,10,15.1,14.9,22.8c6.5,10.4,12.8,21.1,19.1,31.6c6.3,10.3,12.7,20.6,18.9,31c6.5,10.9,12.5,22.2,19.1,33.1
	c6.8,11.1,13.9,21.9,21,32.8c4.6,7.2,9.3,14.4,14,21.6c6.1,9.2,12.3,18.4,18.4,27.6c1.6,2.4,3.1,4.9,4.8,7.2c1.1,1.5,0.9,2.6-0.3,4
	c-8.1,9.3-16.1,18.7-24.9,27.3c-5.7,5.6-10.5,12.5-15.5,18.9c-5.5,6.9-11,13.9-16.4,21c-3.4,4.5-6.4,9.4-9.7,14
	c-5.5,7.6-11.2,15.1-16.7,22.7c-7.7,10.6-15.4,21.1-22.8,31.9c-7.5,10.9-14.7,22-22.1,33c-3.6,5.4-7.4,10.5-11,16
	c-1.8,2.7-3,5.9-4.6,8.8c-1,2-2.1,3.9-3.2,5.8c-3,5.3-3.3,10.8-0.7,16.2C208.5,509.2,212.7,511.7,218.1,512"/>
<path id="Fill-3" class="st0" d="M225.6,259.9c-7.7,10.1-15,20-22.5,29.7c-6.1,7.9-12.2,15.7-18.4,23.5c-3.9,4.8-8.2,9.3-12.2,14
	c-9,10.5-18.1,21-26.8,31.8c-3.3,4.2-5.7,9.3-8.5,13.9c-1,1.7-2.2,3.3-3.4,4.8c-5.6,7-4.8,17.4,1.7,23.1c6.5,5.7,15.9,4.2,20.8-3.4
	c4-6.2,7.5-12.6,11.8-18.5c5.2-7,10.9-13.6,16.4-20.3c4.1-5,8.1-10.3,12.5-15c7.5-8,13.8-17.1,20-26.3c2.7-4,6.5-7.2,9.2-11.3
	c6.1-9.1,11.4-19,17.9-27.7c6.3-8.4,6.2-17.4,4.2-26.8c-0.5-2.6-2.1-5.1-3.9-7c-5.8-6.5-12.3-12.4-17.8-19.2
	c-10.7-13.3-20.9-27.2-31.5-40.7c-10.1-13-20.4-25.7-30.3-38.8c-5.1-6.7-9.9-13.7-14.5-20.8c-1.7-2.6-2.7-6-3.4-9.2
	c-1.5-6.4-4.5-11.9-8.2-17c-0.4-0.5-1-0.9-1.2-1.4c-1.3-3.3-3.3-3.5-6-2.2c-3,1.5-4.3,3.9-3.8,7.2c0.1,0.4,0.2,0.8,0.3,1.3
	c1.3,6.4,2.9,12.8,3.9,19.2c1.4,9.5,5.8,17.4,10.8,25c7.5,11.5,15.5,22.6,23.4,33.7c9.4,13.2,18.6,26.5,28.4,39.3
	c8.9,11.7,18.3,22.8,27.4,34.2C223.1,256.6,224.3,258.3,225.6,259.9"/>
</svg>
