<?xml version="1.0" encoding="utf-8"?>
<!-- Generator: Adobe Illustrator 22.0.1, SVG Export Plug-In . SVG Version: 6.00 Build 0)  -->
<svg version="1.1" id="Calque_1" xmlns="http://www.w3.org/2000/svg" xmlns:xlink="http://www.w3.org/1999/xlink" x="0px" y="0px"
	 viewBox="0 0 512 512" style="enable-background:new 0 0 512 512;" xml:space="preserve">
<style type="text/css">
	.st0{fill:#020303;}
</style>
<title>Group 10</title>
<desc>Created with Sketch.</desc>
<g id="Clip-8">
</g>
<g>
	<path class="st0" d="M502.4,143.2c-21.3-53-75.5-85-129.3-103c-57.8-19.3-120.4-27-180.2-15.2C133,36.9,76.3,69.5,41,119.7
		C12.7,160-0.7,210.1,0,259.5c0.6,37.2,9.1,74.5,26.9,107.1c23.2,42.3,61.3,75.1,104.3,96.6c57.4,28.7,120.4,33.6,184,26.6
		c74.3-8.2,157.4-67.4,191-239.4C513.2,214.7,515.9,176.8,502.4,143.2z M248.3,335.4c-4.4,7.1-9.8,13.2-16.4,18.1
		c-7.4,5.6-16.1,9.5-26.1,11.6c-10.1,2.1-20.9,3.1-32.7,3.1H68.8v-230h111.8c28.2,0.4,48.2,8.6,60,24.5c7.1,9.8,10.6,21.5,10.6,35.1
		c0,14-3.5,25.4-10.7,33.9c-4,4.7-9.9,9.1-17.7,13.1c11.8,4.3,20.7,11.1,26.7,20.3c6,9.2,9,20.5,9,33.7
		C258.6,312.3,255.1,324.6,248.3,335.4z M308,148.8h99.1v28.6H308V148.8z M443.1,295.6H318.5c0.7,17.1,6.6,29,17.9,35.9
		c6.8,4.3,15,6.4,24.7,6.4c10.2,0,18.4-2.6,24.8-7.8c3.5-2.8,6.6-6.7,9.2-11.7h45.7c-1.2,10.1-6.8,20.3-16.6,30.8
		c-15.3,16.5-36.8,24.8-64.4,24.8c-22.8,0-42.9-7-60.2-20.9c-17.5-13.9-26.1-36.7-26.1-68.1c0-29.5,7.9-52.1,23.6-67.8
		c15.7-15.7,36.1-23.6,61.2-23.6c14.9,0,28.3,2.6,40.2,8c12,5.3,21.8,13.7,29.5,25.2c7.1,10.1,11.6,21.8,13.7,35.2
		C442.8,269.6,443.3,280.9,443.1,295.6z"/>
	<path class="st0" d="M358.9,223.5c-11.4,0-20.3,3.5-26.6,10.4c-6.3,6.9-10.3,16.3-11.9,28.1h76.9c-0.8-12.6-4.8-22.1-11.9-28.7
		C378.2,226.7,369.4,223.5,358.9,223.5z"/>
	<path class="st0" d="M191.1,266c-5.2-2.6-12.5-4-21.9-4h-53.9V326h53.1c9.5,0,16.9-1.4,22.2-4.2c9.6-5.3,14.4-15.2,14.4-30
		C205,279.2,200.4,270.6,191.1,266z"/>
	<path class="st0" d="M192.7,188.7c-7.1-2.4-16.2-3.6-27.2-3.6h-50.1v51.3h56c10,0,18.1-1.9,24.4-5.8c6.2-3.8,9.4-10.6,9.4-20.4
		C205,199.3,200.9,192.2,192.7,188.7z"/>
</g>
</svg>
