<?xml version="1.0" encoding="utf-8"?>
<!-- Generator: Adobe Illustrator 22.0.1, SVG Export Plug-In . SVG Version: 6.00 Build 0)  -->
<svg version="1.1" id="Calque_1" xmlns="http://www.w3.org/2000/svg" xmlns:xlink="http://www.w3.org/1999/xlink" x="0px" y="0px"
	 viewBox="0 0 512 512" style="enable-background:new 0 0 512 512;" xml:space="preserve">
<style type="text/css">
	.st0{fill:#070707;}
</style>
<path class="st0" d="M496.7,165.2c-12.9-35.8-33.6-69.2-61.9-94.7C398.2,37.2,350,18.2,300.9,11.8c-65.6-8.6-128.7,7.8-188.5,35.9
	c-69.8,32.8-131.3,118-107,295.9c5,36.8,15,74.4,39.4,102.5c38.4,44.2,102,57,160.5,56.4c62.9-0.6,126.5-14.1,181-45.7
	c54.4-31.5,99-82.1,116.8-142.5C517.4,265.8,513.9,212.8,496.7,165.2z M323.5,161h-31.9c-11.2,0-13.6,4.6-13.6,16.2v28.1h45.5
	l-4.4,49.4H278v147.5h-58.9V255.4h-30.6v-50h30.6V166c0-37,19.8-56.2,63.6-56.2h40.8V161z"/>
</svg>
