<?xml version="1.0" encoding="utf-8"?>
<!-- Generator: Adobe Illustrator 22.0.1, SVG Export Plug-In . SVG Version: 6.00 Build 0)  -->
<svg version="1.1" id="Calque_1" xmlns="http://www.w3.org/2000/svg" xmlns:xlink="http://www.w3.org/1999/xlink" x="0px" y="0px"
	 viewBox="0 0 512 512" style="enable-background:new 0 0 512 512;" xml:space="preserve">
<style type="text/css">
	.st0{fill:#020303;}
</style>
<g id="Clip-6">
</g>
<g>
	<path class="st0" d="M255.7-0.2c-141.4,0-256,114.6-256,256c0,141.4,114.6,256,256,256c141.4,0,256-114.6,256-256
		C511.7,114.4,397.1-0.2,255.7-0.2z M378.8,306.8c-0.6,13.2-2.7,22.2-5.8,30c-6.4,16.6-19.6,29.8-36.2,36.2c-7.8,3-16.9,5.2-30,5.8
		c-13.2,0.6-17.4,0.7-51,0.7c-33.6,0-37.8-0.1-51-0.7c-13.2-0.6-22.2-2.7-30-5.8c-8.2-3.1-15.7-8-21.9-14.3
		c-6.3-6.2-11.2-13.6-14.3-22c-3-7.8-5.2-16.9-5.8-30c-0.6-13.2-0.7-17.4-0.7-51c0-33.6,0.1-37.8,0.8-51.1c0.6-13.2,2.7-22.2,5.8-30
		c3.1-8.2,8-15.7,14.3-21.9c6.2-6.3,13.6-11.2,22-14.3c7.8-3,16.9-5.2,30-5.8c13.2-0.6,17.4-0.7,51-0.7c33.6,0,37.8,0.1,51.1,0.8
		c13.2,0.6,22.2,2.7,30,5.8c8.2,3.1,15.7,8,21.9,14.3c6.3,6.2,11.2,13.6,14.3,22c3,7.8,5.2,16.9,5.8,30c0.6,13.2,0.6,17.4,0.6,51
		C379.5,289.4,379.3,293.6,378.8,306.8z"/>
	<path class="st0" d="M352.3,182.9c-2-5.4-5.1-10.2-9.2-14.2c-4-4.1-8.9-7.3-14.2-9.2c-4.4-1.7-10.9-3.7-23-4.3
		c-13-0.6-16.9-0.7-50-0.7c-33,0-37,0.1-50,0.7c-12,0.5-18.6,2.6-23,4.3c-5.4,2-10.2,5.1-14.2,9.2c-4.2,4-7.3,8.9-9.3,14.2
		c-1.7,4.4-3.7,10.9-4.3,23c-0.6,13-0.7,17-0.7,50c0,33,0.1,37,0.7,50c0.5,12,2.6,18.6,4.3,23c2,5.4,5.1,10.2,9.2,14.2
		c4,4.1,8.9,7.3,14.2,9.2c4.4,1.7,10.9,3.7,23,4.3c13,0.6,17,0.7,50,0.7c33,0,37-0.1,50-0.7c12-0.5,18.6-2.6,23-4.3
		c10.8-4.2,19.4-12.7,23.5-23.5c1.7-4.4,3.7-10.9,4.3-23c0.6-13.1,0.7-16.9,0.7-50c0-33-0.1-37-0.7-50
		C356,193.8,354,187.2,352.3,182.9z M255.7,319.4c-35.1,0-63.6-28.5-63.6-63.6c0-35.1,28.5-63.6,63.6-63.6
		c35.1,0,63.6,28.5,63.6,63.6C319.3,290.9,290.9,319.4,255.7,319.4z M321.9,204.5c-8.2,0-14.9-6.7-14.9-14.9
		c0-8.2,6.7-14.9,14.9-14.9c8.2,0,14.9,6.6,14.9,14.9C336.7,197.9,330.1,204.5,321.9,204.5z"/>
	<path class="st0" d="M255.7,214.5c-22.8,0-41.3,18.5-41.3,41.3s18.5,41.3,41.3,41.3c22.8,0,41.3-18.5,41.3-41.3
		S278.5,214.5,255.7,214.5z"/>
</g>
</svg>
