<?xml version="1.0" encoding="utf-8"?>
<!-- Generator: Adobe Illustrator 22.0.1, SVG Export Plug-In . SVG Version: 6.00 Build 0)  -->
<svg version="1.1" id="Calque_1" xmlns="http://www.w3.org/2000/svg" xmlns:xlink="http://www.w3.org/1999/xlink" x="0px" y="0px"
	 viewBox="0 0 512 512" style="enable-background:new 0 0 512 512;" xml:space="preserve">
<style type="text/css">
	.st0{fill:#020303;}
</style>
<title>Group 8</title>
<desc>Created with Sketch.</desc>
<g id="Clip-4">
</g>
<g>
	<path class="st0" d="M489.2,158.3C460.6,74.9,385-29.3,230.8,7.7c-59.7,14.4-108.2,58.9-147.6,106C40.8,164.5,8.7,226,3.1,292
		c-5.6,65.9,18.4,136.2,70.7,176.8C116.5,502,173,512.7,227.1,512c107.1-1.3,221.4-52.2,263.7-150.6
		C518.2,297.8,511.7,223.8,489.2,158.3z M388.8,324.4c-0.6,14.2-2.9,24-6.2,32.5c-7,18-21.2,32.3-39.2,39.2
		c-8.5,3.3-18.3,5.6-32.5,6.2c-14.3,0.6-18.9,0.8-55.2,0.8c-36.4,0-41-0.2-55.2-0.8c-14.2-0.6-24-2.9-32.5-6.2
		c-8.9-3.4-17-8.6-23.7-15.4c-6.8-6.7-12.1-14.8-15.5-23.8c-3.3-8.5-5.6-18.3-6.2-32.5c-0.6-14.3-0.8-18.9-0.8-55.2
		c0-36.4,0.2-41,0.8-55.3c0.6-14.2,2.9-24,6.2-32.5c3.4-8.9,8.6-17,15.5-23.7c6.7-6.9,14.8-12.1,23.8-15.5
		c8.5-3.3,18.3-5.6,32.5-6.2c14.3-0.6,18.9-0.8,55.2-0.8c36.4,0,41,0.2,55.3,0.8c14.2,0.6,24,2.9,32.5,6.2c8.9,3.4,17,8.6,23.7,15.4
		c6.9,6.7,12.1,14.8,15.5,23.8c3.3,8.5,5.6,18.3,6.2,32.5c0.6,14.3,0.7,18.8,0.7,55.2C389.6,305.5,389.4,310.1,388.8,324.4z"/>
	<path class="st0" d="M361.3,189.5c-2.2-5.9-5.6-11.2-10.1-15.6c-4.3-4.5-9.7-7.9-15.6-10.1c-4.8-1.9-11.9-4.1-25.1-4.7
		c-14.2-0.6-18.5-0.8-54.7-0.8c-36.2,0-40.4,0.2-54.7,0.8c-13.2,0.6-20.4,2.8-25.1,4.7c-5.9,2.2-11.2,5.6-15.6,10.1
		c-4.6,4.3-8,9.7-10.2,15.6c-1.9,4.8-4.1,11.9-4.7,25.1c-0.6,14.2-0.8,18.6-0.8,54.7c0,36.2,0.2,40.4,0.8,54.7
		c0.6,13.2,2.8,20.4,4.7,25.1c2.2,5.9,5.6,11.2,10.1,15.6c4.3,4.5,9.7,7.9,15.6,10.1c4.8,1.9,11.9,4.1,25.1,4.7
		c14.2,0.6,18.6,0.8,54.7,0.8c36.2,0,40.4-0.2,54.7-0.8c13.2-0.6,20.4-2.8,25.1-4.7c11.8-4.6,21.2-13.9,25.7-25.7
		c1.9-4.8,4.1-11.9,4.7-25.1c0.6-14.3,0.8-18.5,0.8-54.7c0-36.2-0.2-40.4-0.8-54.7C365.3,201.4,363.1,194.2,361.3,189.5z
		 M255.6,338.9c-38.4,0-69.6-31.2-69.6-69.6c0-38.4,31.2-69.6,69.6-69.6c38.4,0,69.6,31.2,69.6,69.6
		C325.2,307.7,294,338.9,255.6,338.9z M328,213.1c-9,0-16.2-7.3-16.2-16.2c0-9,7.3-16.2,16.2-16.2c9,0,16.3,7.3,16.3,16.2
		C344.2,205.9,337,213.1,328,213.1z"/>
	<circle class="st0" cx="255.6" cy="269.3" r="45.2"/>
</g>
</svg>
