<?xml version="1.0" encoding="utf-8"?>
<!-- Generator: Adobe Illustrator 22.0.1, SVG Export Plug-In . SVG Version: 6.00 Build 0)  -->
<svg version="1.1" id="Calque_1" xmlns="http://www.w3.org/2000/svg" xmlns:xlink="http://www.w3.org/1999/xlink" x="0px" y="0px"
	 viewBox="0 0 40 40" style="enable-background:new 0 0 40 40;" xml:space="preserve">
<style type="text/css">
	.st0{fill:#020303;}
</style>
<title>Group 3</title>
<desc>Created with Sketch.</desc>
<g id="Clip-2">
</g>
<path class="st0" d="M19.7,0C8.8,0,0,8.8,0,19.7c0,10.9,8.8,19.7,19.7,19.7s19.7-8.8,19.7-19.7C39.3,8.8,30.5,0,19.7,0z M14.3,29.5
	h-4.1V16.4h4.1V29.5z M12.2,14.6c-1.3,0-2.4-1.1-2.4-2.4s1.1-2.4,2.4-2.4c1.3,0,2.4,1.1,2.4,2.4C14.6,13.5,13.5,14.6,12.2,14.6z
	 M29.5,29.5L29.5,29.5L29.5,29.5l-4.1,0v-6.4c0-1.5,0-3.5-2.1-3.5c-2.1,0-2.4,1.6-2.4,3.4v6.5h-4.1V16.4h3.9v1.8h0.1
	c0.5-1,1.9-2.1,3.8-2.1c4.1,0,4.9,2.7,4.9,6.2V29.5z"/>
</svg>
