<?xml version="1.0" encoding="utf-8"?>
<!-- Generator: Adobe Illustrator 22.0.1, SVG Export Plug-In . SVG Version: 6.00 Build 0)  -->
<svg version="1.1" id="Calque_1" xmlns="http://www.w3.org/2000/svg" xmlns:xlink="http://www.w3.org/1999/xlink" x="0px" y="0px"
	 viewBox="0 0 512 512" style="enable-background:new 0 0 512 512;" xml:space="preserve">
<style type="text/css">
	.st0{fill:#020303;}
</style>
<g id="Clip-2">
</g>
<path class="st0" d="M496.4,165.1c-12.9-35.8-33.6-69.2-61.9-94.7c-36.7-33.2-84.8-52.2-133.9-58.7C235,3.2,171.9,19.5,112.1,47.6
	c-69.8,32.8-131.3,118-107,295.9c5,36.8,15,74.4,39.4,102.4c38.4,44.2,102,57,160.5,56.4c62.9-0.6,126.5-14.1,181-45.7
	c54.4-31.5,99-82.1,116.8-142.5C517.1,265.7,513.6,212.7,496.4,165.1z M280.7,330.5c-21.1,0-40.9-10.4-47.8-22.8
	c0,0-10.4,38-13,47.3c-7,25.7-31.9,61.2-33.9,63.9c-1.3,1.7-3.5,1-3.9-1c-0.6-3.7-8-46.3-1.5-72.7c3.8-15.6,24.4-98.8,24.4-98.8
	s-6.2-11.9-6.2-29.5c0-57,64.1-63.4,64.1-20.4c0,17.1-11.5,42.5-17.3,66.2c-4.8,19.9,10.4,35.9,30.9,35.9
	c79.4,0,102.6-171.9-21.6-171.9c-85.8,0-115.8,88.6-78.6,131.6c1.6,1.9,1.9,3.7,1.4,5.7c-6.4,24.5-5.4,28.5-12.8,25.2
	c-26.1-11.5-42.3-47.8-42.3-77c0-62.8,47.8-120.4,137.7-120.4c72.3,0,128.5,49.1,128.7,114.8C388.9,275.3,343.5,330.5,280.7,330.5z"
	/>
</svg>
