<?xml version="1.0" encoding="utf-8"?>
<!-- Generator: Adobe Illustrator 22.0.1, SVG Export Plug-In . SVG Version: 6.00 Build 0)  -->
<svg version="1.1" id="Calque_1" xmlns="http://www.w3.org/2000/svg" xmlns:xlink="http://www.w3.org/1999/xlink" x="0px" y="0px"
	 viewBox="0 0 512 512" style="enable-background:new 0 0 512 512;" xml:space="preserve">
<g id="Clip-2">
</g>
<path d="M315.1,0C206.9,0,119.2,87.7,119.2,195.9c0,41.9,13.2,80.8,35.6,112.7c-1.3,1-2.6,2.1-3.7,3.2L11.4,451.4
	c-13.8,13.8-13.8,36.4,0,50.2c13.8,13.8,36.4,13.8,50.2,0L201.3,362c1.3-1.3,2.5-2.7,3.6-4.2c31.4,21.4,69.4,34,110.2,34
	c108.2,0,195.9-87.7,195.9-195.9S423.2,0,315.1,0z M315.1,335.2c-76.9,0-139.3-62.4-139.3-139.3S238.1,56.6,315.1,56.6
	S454.3,119,454.3,195.9S392,335.2,315.1,335.2z"/>
</svg>
