<?xml version="1.0" encoding="utf-8"?>
<!-- Generator: Adobe Illustrator 22.0.1, SVG Export Plug-In . SVG Version: 6.00 Build 0)  -->
<svg version="1.1" id="Calque_1" xmlns="http://www.w3.org/2000/svg" xmlns:xlink="http://www.w3.org/1999/xlink" x="0px" y="0px"
	 viewBox="0 0 512 512" style="enable-background:new 0 0 512 512;" xml:space="preserve">


<path id="Fill-1" class="st2" d="M7.1,240.2l135.2-124.4c8.8-8.1,22.6-7.6,30.7,1.3c8.1,8.8,7.6,22.5-1.3,30.7L53.8,256.2
	l117.9,108.5c8.8,8.1,9.4,21.9,1.3,30.7c-4.3,4.7-10.1,7-16,7c-5.3,0-10.5-1.8-14.7-5.7L7.1,272.2c-4.5-4.1-7-9.9-7-16
	C0,250.1,2.6,244.3,7.1,240.2"/>

<path id="Fill-4" d="M94.8,256.2c0-6.3,2.8-12.3,7.5-16.4l151.6-131.3c9.1-7.9,22.8-6.9,30.7,2.2c7.8,9,6.9,22.7-2.2,30.6
	l-107.6,93.2H260v43.4h-85.3l107.6,93.3c9.1,7.9,10,21.5,2.2,30.6c-4.3,5-10.4,7.5-16.4,7.5c-5.1,0-10.1-1.7-14.2-5.3L102.3,272.6
	C97.5,268.5,94.8,262.5,94.8,256.2"/>

<polygon id="Fill-6" class="st4" points="335.9,278.8 296.8,278.8 296.8,233.6 335.9,233.6 "/>

<polygon id="Fill-8" class="st6" points="410.7,278.8 371.6,278.8 371.6,233.6 410.7,233.6 "/>

<path id="Fill-9" class="st8" d="M512,256.2c0,12.5-8,22.6-17.8,22.6h-47.8v-45.2h47.8C504,233.6,512,243.7,512,256.2"/>

<path id="Fill-10" class="st10" d="M210.6,402.2c11,0,19.9,8.9,19.9,19.9c0,11-8.9,19.9-19.9,19.9c-11,0-19.9-8.9-19.9-19.9
	C190.6,411.1,199.5,402.2,210.6,402.2"/>

<path id="Fill-11" class="st12" d="M210.6,110.2c-11,0-19.9-8.9-19.9-19.9c0-11,8.9-19.9,19.9-19.9c11,0,19.9,8.9,19.9,19.9
	C230.5,101.3,221.6,110.2,210.6,110.2"/>
	
</svg>
