<?xml version="1.0" encoding="utf-8"?>
<!-- Generator: Adobe Illustrator 22.0.1, SVG Export Plug-In . SVG Version: 6.00 Build 0)  -->
<svg version="1.1" id="Calque_1" xmlns="http://www.w3.org/2000/svg" xmlns:xlink="http://www.w3.org/1999/xlink" x="0px" y="0px"
	 viewBox="0 0 512 512" style="enable-background:new 0 0 512 512;" xml:space="preserve">
<style type="text/css">
	.st0{fill:#020303;}
</style>
<title>Group 3</title>
<desc>Created with Sketch.</desc>
<g id="Clip-2">
</g>
<path class="st0" d="M508,174c-4.3-36.4-13.6-73.6-37.4-101.8C433,27.9,369.8,14,311.3,13.5C248.4,12.9,184.6,25,129.6,55.1
	C74.6,85.1,29,134.2,10.1,193.4C-5.1,241-2.6,293.3,13.7,340.6c12.2,35.6,32.3,68.8,60,94.6c36,33.5,83.8,53.1,132.7,60.4
	c65.3,9.7,128.7-5.2,189.1-31.8C465.8,432.7,528.8,349.9,508,174z M391.3,187.5c4.4,96.9-68.8,205-198.5,205
	c-39.4,0-76.1-11.4-107-31c37,4.3,74-5.8,103.4-28.5c-30.6-0.6-56.3-20.5-65.2-47.9c10.9,2.1,21.7,1.5,31.5-1.2
	c-33.6-6.7-56.8-36.5-56-68.5c9.4,5.2,20.2,8.3,31.6,8.6c-31.1-20.5-39.9-61-21.6-92c34.4,41.7,85.9,69.1,143.9,72
	c-10.2-43.1,23-84.6,68-84.6c20.1,0,38.2,8.4,51,21.8c15.9-3.1,30.8-8.8,44.3-16.7c-5.2,16.1-16.3,29.6-30.7,38.1
	c14.1-1.7,27.6-5.4,40.1-10.9C416.8,165.6,405,177.8,391.3,187.5z"/>
</svg>
